<svg width="1104" height="292" viewBox="0 0 1104 292" fill="none" xmlns="http://www.w3.org/2000/svg">
<rect width="1104" height="291.638" fill="#002BFF"/>
<rect x="25" y="44" width="207.09" height="64.4179" rx="8.62873" fill="white"/>
<path d="M77.1491 81.8643C75.4924 81.8643 74.224 81.4604 73.3438 80.6528C72.4741 79.8451 72.0392 78.5405 72.0392 76.7388C72.0392 75.4963 72.2359 74.4971 72.6294 73.7412C73.0229 72.9749 73.5975 72.421 74.3534 72.0793C75.1196 71.7272 76.0515 71.5512 77.1491 71.5512C78.2467 71.5512 79.1734 71.7272 79.9293 72.0793C80.6955 72.421 81.2754 72.9749 81.6688 73.7412C82.0623 74.4971 82.2591 75.4963 82.2591 76.7388C82.2591 78.5405 81.819 79.8451 80.9389 80.6528C80.0587 81.4604 78.7955 81.8643 77.1491 81.8643ZM77.1491 79.3792C77.8946 79.3792 78.4331 79.1721 78.7644 78.7579C79.1061 78.3334 79.277 77.6604 79.277 76.7388C79.277 75.7551 79.1061 75.0614 78.7644 74.6576C78.4331 74.2434 77.8946 74.0363 77.1491 74.0363C76.4036 74.0363 75.86 74.2434 75.5183 74.6576C75.1869 75.0614 75.0213 75.7551 75.0213 76.7388C75.0213 77.6604 75.1869 78.3334 75.5183 78.7579C75.86 79.1721 76.4036 79.3792 77.1491 79.3792ZM83.3464 85.0638V74.3469H85.8781L86.0179 74.9371C86.3181 74.699 86.6443 74.5178 86.9964 74.3935C87.3588 74.2589 87.7781 74.1916 88.2544 74.1916C89.352 74.1916 90.1959 74.4712 90.7861 75.0303C91.3867 75.5791 91.6869 76.5162 91.6869 77.8416C91.6869 79.1566 91.3711 80.1558 90.7395 80.8392C90.1079 81.5226 89.2381 81.8643 88.1302 81.8643C87.395 81.8643 86.7737 81.7245 86.2664 81.4449V85.0638H83.3464ZM87.3846 79.7364C87.8092 79.7364 88.1353 79.5863 88.3631 79.286C88.5909 78.9857 88.7048 78.5198 88.7048 77.8881C88.7048 77.2772 88.5961 76.8631 88.3787 76.6456C88.1716 76.4282 87.8506 76.3194 87.4157 76.3194C86.9808 76.3194 86.5977 76.4644 86.2664 76.7543V79.3637C86.432 79.4879 86.5977 79.5811 86.7634 79.6432C86.929 79.7054 87.1361 79.7364 87.3846 79.7364ZM96.8345 81.8643C95.9751 81.8643 95.214 81.7245 94.5513 81.4449C93.899 81.155 93.3864 80.7253 93.0137 80.1558C92.6513 79.5863 92.4701 78.8822 92.4701 78.0435C92.4701 76.8734 92.8014 75.9415 93.4641 75.2478C94.1268 74.5437 95.1156 74.1916 96.4307 74.1916C97.6318 74.1916 98.5689 74.4971 99.2419 75.108C99.9253 75.7189 100.267 76.5524 100.267 77.6086V78.8977H95.1571C95.2917 79.2912 95.5557 79.5708 95.9492 79.7364C96.3426 79.9021 96.8759 79.9849 97.5489 79.9849C97.9735 79.9849 98.398 79.9487 98.8225 79.8762C99.2574 79.7934 99.6043 79.7002 99.8632 79.5966V81.3517C99.1384 81.6934 98.1288 81.8643 96.8345 81.8643ZM95.1571 77.3135H97.7509V77.0494C97.7509 76.7595 97.6577 76.5214 97.4713 76.335C97.2953 76.1486 96.9794 76.0554 96.5238 76.0554C96.0165 76.0554 95.6592 76.1641 95.4522 76.3816C95.2554 76.5887 95.1571 76.8993 95.1571 77.3135ZM101.35 81.709V74.3469H104.084L104.162 74.9061C104.441 74.7197 104.809 74.554 105.264 74.409C105.73 74.2641 106.227 74.1916 106.755 74.1916C107.677 74.1916 108.35 74.4194 108.775 74.875C109.199 75.3306 109.411 76.0347 109.411 76.9873V81.709H106.491V77.2824C106.491 76.9511 106.419 76.7129 106.274 76.568C106.129 76.423 105.875 76.3505 105.513 76.3505C105.296 76.3505 105.068 76.4023 104.83 76.5058C104.602 76.6094 104.415 76.7336 104.27 76.8786V81.709H101.35ZM113.909 81.709V71.7065H116.829V81.709H113.909ZM118.232 81.709V74.3469H120.966L121.043 74.9061C121.323 74.7197 121.69 74.554 122.146 74.409C122.612 74.2641 123.109 74.1916 123.637 74.1916C124.559 74.1916 125.232 74.4194 125.656 74.875C126.081 75.3306 126.293 76.0347 126.293 76.9873V81.709H123.373V77.2824C123.373 76.9511 123.301 76.7129 123.156 76.568C123.011 76.423 122.757 76.3505 122.395 76.3505C122.177 76.3505 121.949 76.4023 121.711 76.5058C121.483 76.6094 121.297 76.7336 121.152 76.8786V81.709H118.232ZM130.479 81.8643C129.847 81.8643 129.252 81.8177 128.693 81.7245C128.144 81.6416 127.709 81.5329 127.388 81.3983V79.3015C127.751 79.4672 128.18 79.5966 128.677 79.6898C129.185 79.783 129.615 79.8296 129.967 79.8296C130.339 79.8296 130.619 79.8193 130.805 79.7986C131.002 79.7778 131.1 79.6898 131.1 79.5345C131.1 79.3585 130.93 79.2239 130.588 79.1307C130.246 79.0375 129.816 78.9029 129.299 78.7269C128.626 78.4887 128.123 78.2091 127.792 77.8881C127.461 77.5672 127.295 77.1012 127.295 76.4903C127.295 75.7551 127.585 75.1908 128.165 74.7973C128.745 74.3935 129.656 74.1916 130.898 74.1916C131.375 74.1916 131.867 74.2278 132.374 74.3003C132.881 74.3728 133.28 74.4556 133.57 74.5488V76.599C133.259 76.4644 132.918 76.366 132.545 76.3039C132.182 76.2418 131.851 76.2107 131.551 76.2107C131.219 76.2107 130.924 76.2263 130.665 76.2573C130.407 76.2884 130.277 76.3764 130.277 76.5214C130.277 76.687 130.422 76.8061 130.712 76.8786C131.012 76.9511 131.411 77.065 131.908 77.2203C132.467 77.386 132.902 77.5672 133.213 77.7639C133.534 77.9606 133.756 78.1988 133.881 78.4784C134.015 78.7579 134.082 79.1048 134.082 79.519C134.082 80.2645 133.777 80.8444 133.166 81.2585C132.566 81.6624 131.67 81.8643 130.479 81.8643ZM138.1 81.8643C137.116 81.8643 136.402 81.6158 135.956 81.1187C135.511 80.6217 135.289 79.9487 135.289 79.0996V76.5058H134.326V74.3469H135.289V72.8403L138.209 72.1414V74.3469H139.902L139.793 76.5058H138.209V78.8822C138.209 79.1928 138.286 79.4154 138.442 79.55C138.597 79.6743 138.835 79.7364 139.156 79.7364C139.456 79.7364 139.762 79.6847 140.072 79.5811V81.5226C139.524 81.7504 138.866 81.8643 138.1 81.8643ZM143.146 81.8643C142.68 81.8643 142.245 81.7814 141.841 81.6158C141.448 81.4501 141.132 81.1912 140.894 80.8392C140.656 80.4871 140.537 80.0419 140.537 79.5034C140.537 78.7269 140.795 78.1263 141.313 77.7018C141.831 77.2669 142.613 77.0494 143.658 77.0494H145.569V76.9097C145.569 76.6197 145.45 76.4075 145.212 76.2729C144.973 76.1382 144.554 76.0709 143.953 76.0709C143.104 76.0709 142.266 76.2004 141.437 76.4592V74.7041C141.81 74.5592 142.276 74.4401 142.835 74.3469C143.394 74.2434 143.964 74.1916 144.544 74.1916C145.714 74.1916 146.64 74.4298 147.324 74.9061C148.007 75.3824 148.349 76.1382 148.349 77.1737V81.709H145.802L145.662 81.1187C145.403 81.3465 145.067 81.5278 144.652 81.6624C144.249 81.797 143.746 81.8643 143.146 81.8643ZM144.14 80.1558C144.471 80.1558 144.751 80.0988 144.979 79.9849C145.217 79.871 145.413 79.7312 145.569 79.5656V78.6492H144.155C143.513 78.6492 143.192 78.9029 143.192 79.4103C143.192 79.9073 143.508 80.1558 144.14 80.1558ZM152.905 84.4425C152.543 84.4425 152.149 84.427 151.725 84.3959C151.3 84.3752 150.897 84.3338 150.513 84.2717C150.141 84.2096 149.83 84.1371 149.582 84.0542V82.1904C149.861 82.2836 150.182 82.3613 150.545 82.4234C150.917 82.4855 151.295 82.5321 151.678 82.5632C152.061 82.5943 152.414 82.6098 152.734 82.6098C153.283 82.6098 153.713 82.5787 154.024 82.5166C154.345 82.4648 154.505 82.3665 154.505 82.2215C154.505 82.0972 154.453 82.0144 154.35 81.973C154.246 81.9419 154.05 81.9264 153.76 81.9264H151.818C151.062 81.9264 150.477 81.8073 150.063 81.5692C149.659 81.3207 149.457 80.9531 149.457 80.4664C149.457 79.783 149.835 79.3067 150.591 79.0375C150.167 78.8201 149.856 78.5457 149.659 78.2143C149.462 77.883 149.364 77.4636 149.364 76.9562C149.364 76.0036 149.685 75.3047 150.327 74.8595C150.979 74.4142 151.916 74.1916 153.138 74.1916C153.397 74.1916 153.687 74.2123 154.008 74.2537C154.329 74.2848 154.562 74.3159 154.707 74.3469H157.596L157.534 76.1175H156.555C156.742 76.3557 156.835 76.6456 156.835 76.9873C156.835 77.7432 156.612 78.3437 156.167 78.789C155.732 79.2239 155.044 79.4413 154.101 79.4413C153.967 79.4413 153.822 79.4361 153.666 79.4258C153.511 79.4051 153.366 79.3895 153.232 79.3792C153.004 79.3999 152.807 79.4413 152.641 79.5034C152.476 79.5656 152.393 79.6691 152.393 79.8141C152.393 79.9176 152.439 79.9901 152.533 80.0315C152.626 80.0626 152.755 80.0781 152.921 80.0781H154.614C155.37 80.0781 155.965 80.2541 156.4 80.6062C156.835 80.9583 157.052 81.476 157.052 82.1594C157.052 82.8842 156.716 83.4433 156.043 83.8368C155.37 84.2406 154.324 84.4425 152.905 84.4425ZM153.154 77.8416C153.609 77.8416 153.925 77.7639 154.101 77.6086C154.277 77.4533 154.365 77.1944 154.365 76.832C154.365 76.4696 154.277 76.2055 154.101 76.0399C153.925 75.8742 153.609 75.7914 153.154 75.7914C152.729 75.7914 152.419 75.8742 152.222 76.0399C152.036 76.1952 151.942 76.4592 151.942 76.832C151.942 77.184 152.03 77.4429 152.206 77.6086C152.393 77.7639 152.709 77.8416 153.154 77.8416ZM158.123 81.709V74.3469H160.934L161.012 74.9371C161.312 74.7611 161.695 74.6006 162.161 74.4556C162.627 74.3107 163.098 74.2227 163.575 74.1916V76.366C163.306 76.3867 163.01 76.423 162.689 76.4748C162.379 76.5265 162.073 76.5938 161.773 76.6767C161.483 76.7492 161.24 76.832 161.043 76.9252V81.709H158.123ZM166.231 81.8643C165.765 81.8643 165.33 81.7814 164.926 81.6158C164.533 81.4501 164.217 81.1912 163.979 80.8392C163.741 80.4871 163.622 80.0419 163.622 79.5034C163.622 78.7269 163.881 78.1263 164.398 77.7018C164.916 77.2669 165.698 77.0494 166.744 77.0494H168.654V76.9097C168.654 76.6197 168.535 76.4075 168.297 76.2729C168.059 76.1382 167.639 76.0709 167.039 76.0709C166.19 76.0709 165.351 76.2004 164.523 76.4592V74.7041C164.895 74.5592 165.361 74.4401 165.92 74.3469C166.48 74.2434 167.049 74.1916 167.629 74.1916C168.799 74.1916 169.726 74.4298 170.409 74.9061C171.093 75.3824 171.434 76.1382 171.434 77.1737V81.709H168.887L168.747 81.1187C168.488 81.3465 168.152 81.5278 167.738 81.6624C167.334 81.797 166.832 81.8643 166.231 81.8643ZM167.225 80.1558C167.556 80.1558 167.836 80.0988 168.064 79.9849C168.302 79.871 168.499 79.7312 168.654 79.5656V78.6492H167.241C166.599 78.6492 166.278 78.9029 166.278 79.4103C166.278 79.9073 166.593 80.1558 167.225 80.1558ZM172.76 81.709V74.3469H175.462L175.54 74.9371C175.861 74.7197 176.218 74.5437 176.612 74.409C177.016 74.2641 177.456 74.1916 177.932 74.1916C178.408 74.1916 178.781 74.2589 179.05 74.3935C179.32 74.5281 179.537 74.7249 179.703 74.9837C180.034 74.7456 180.407 74.554 180.821 74.409C181.245 74.2641 181.742 74.1916 182.312 74.1916C183.171 74.1916 183.803 74.4194 184.207 74.875C184.611 75.3202 184.813 76.0036 184.813 76.9252V81.709H181.939V77.2669C181.939 76.9355 181.872 76.7026 181.737 76.568C181.603 76.423 181.38 76.3505 181.069 76.3505C180.666 76.3505 180.334 76.4955 180.075 76.7854C180.096 76.92 180.106 77.0494 180.106 77.1737C180.106 77.2876 180.106 77.417 180.106 77.562V81.709H177.404V77.2203C177.404 76.92 177.352 76.7026 177.249 76.568C177.145 76.423 176.948 76.3505 176.658 76.3505C176.462 76.3505 176.27 76.4023 176.084 76.5058C175.897 76.6094 175.732 76.7336 175.587 76.8786V81.709H172.76Z" fill="#002BFF"/>
<rect x="25" y="182.923" width="207.09" height="64.4179" rx="8.62873" fill="white"/>
<path d="M77.1491 220.787C75.4924 220.787 74.224 220.383 73.3438 219.575C72.4741 218.768 72.0392 217.463 72.0392 215.662C72.0392 214.419 72.2359 213.42 72.6294 212.664C73.0229 211.898 73.5975 211.344 74.3534 211.002C75.1196 210.65 76.0515 210.474 77.1491 210.474C78.2467 210.474 79.1734 210.65 79.9293 211.002C80.6955 211.344 81.2754 211.898 81.6688 212.664C82.0623 213.42 82.2591 214.419 82.2591 215.662C82.2591 217.463 81.819 218.768 80.9389 219.575C80.0587 220.383 78.7955 220.787 77.1491 220.787ZM77.1491 218.302C77.8946 218.302 78.4331 218.095 78.7644 217.681C79.1061 217.256 79.277 216.583 79.277 215.662C79.277 214.678 79.1061 213.984 78.7644 213.58C78.4331 213.166 77.8946 212.959 77.1491 212.959C76.4036 212.959 75.86 213.166 75.5183 213.58C75.1869 213.984 75.0213 214.678 75.0213 215.662C75.0213 216.583 75.1869 217.256 75.5183 217.681C75.86 218.095 76.4036 218.302 77.1491 218.302ZM83.3464 223.987V213.27H85.8781L86.0179 213.86C86.3181 213.622 86.6443 213.44 86.9964 213.316C87.3588 213.182 87.7781 213.114 88.2544 213.114C89.352 213.114 90.1959 213.394 90.7861 213.953C91.3867 214.502 91.6869 215.439 91.6869 216.764C91.6869 218.079 91.3711 219.078 90.7395 219.762C90.1079 220.445 89.2381 220.787 88.1302 220.787C87.395 220.787 86.7737 220.647 86.2664 220.368V223.987H83.3464ZM87.3846 218.659C87.8092 218.659 88.1353 218.509 88.3631 218.209C88.5909 217.908 88.7048 217.442 88.7048 216.811C88.7048 216.2 88.5961 215.786 88.3787 215.568C88.1716 215.351 87.8506 215.242 87.4157 215.242C86.9808 215.242 86.5977 215.387 86.2664 215.677V218.286C86.432 218.411 86.5977 218.504 86.7634 218.566C86.929 218.628 87.1361 218.659 87.3846 218.659ZM96.8345 220.787C95.9751 220.787 95.214 220.647 94.5513 220.368C93.899 220.078 93.3864 219.648 93.0137 219.078C92.6513 218.509 92.4701 217.805 92.4701 216.966C92.4701 215.796 92.8014 214.864 93.4641 214.17C94.1268 213.466 95.1156 213.114 96.4307 213.114C97.6318 213.114 98.5689 213.42 99.2419 214.031C99.9253 214.642 100.267 215.475 100.267 216.531V217.82H95.1571C95.2917 218.214 95.5557 218.493 95.9492 218.659C96.3426 218.825 96.8759 218.908 97.5489 218.908C97.9735 218.908 98.398 218.871 98.8225 218.799C99.2574 218.716 99.6043 218.623 99.8632 218.519V220.274C99.1384 220.616 98.1288 220.787 96.8345 220.787ZM95.1571 216.236H97.7509V215.972C97.7509 215.682 97.6577 215.444 97.4713 215.258C97.2953 215.071 96.9794 214.978 96.5238 214.978C96.0165 214.978 95.6592 215.087 95.4522 215.304C95.2554 215.511 95.1571 215.822 95.1571 216.236ZM101.35 220.632V213.27H104.084L104.162 213.829C104.441 213.642 104.809 213.477 105.264 213.332C105.73 213.187 106.227 213.114 106.755 213.114C107.677 213.114 108.35 213.342 108.775 213.798C109.199 214.253 109.411 214.957 109.411 215.91V220.632H106.491V216.205C106.491 215.874 106.419 215.636 106.274 215.491C106.129 215.346 105.875 215.273 105.513 215.273C105.296 215.273 105.068 215.325 104.83 215.429C104.602 215.532 104.415 215.656 104.27 215.801V220.632H101.35ZM113.909 220.632V210.629H116.829V220.632H113.909ZM118.232 220.632V213.27H120.966L121.043 213.829C121.323 213.642 121.69 213.477 122.146 213.332C122.612 213.187 123.109 213.114 123.637 213.114C124.559 213.114 125.232 213.342 125.656 213.798C126.081 214.253 126.293 214.957 126.293 215.91V220.632H123.373V216.205C123.373 215.874 123.301 215.636 123.156 215.491C123.011 215.346 122.757 215.273 122.395 215.273C122.177 215.273 121.949 215.325 121.711 215.429C121.483 215.532 121.297 215.656 121.152 215.801V220.632H118.232ZM130.479 220.787C129.847 220.787 129.252 220.74 128.693 220.647C128.144 220.564 127.709 220.456 127.388 220.321V218.224C127.751 218.39 128.18 218.519 128.677 218.613C129.185 218.706 129.615 218.752 129.967 218.752C130.339 218.752 130.619 218.742 130.805 218.721C131.002 218.701 131.1 218.613 131.1 218.457C131.1 218.281 130.93 218.147 130.588 218.053C130.246 217.96 129.816 217.826 129.299 217.65C128.626 217.411 128.123 217.132 127.792 216.811C127.461 216.49 127.295 216.024 127.295 215.413C127.295 214.678 127.585 214.114 128.165 213.72C128.745 213.316 129.656 213.114 130.898 213.114C131.375 213.114 131.867 213.151 132.374 213.223C132.881 213.296 133.28 213.378 133.57 213.472V215.522C133.259 215.387 132.918 215.289 132.545 215.227C132.182 215.164 131.851 215.133 131.551 215.133C131.219 215.133 130.924 215.149 130.665 215.18C130.407 215.211 130.277 215.299 130.277 215.444C130.277 215.61 130.422 215.729 130.712 215.801C131.012 215.874 131.411 215.988 131.908 216.143C132.467 216.309 132.902 216.49 133.213 216.687C133.534 216.883 133.756 217.121 133.881 217.401C134.015 217.681 134.082 218.028 134.082 218.442C134.082 219.187 133.777 219.767 133.166 220.181C132.566 220.585 131.67 220.787 130.479 220.787ZM138.1 220.787C137.116 220.787 136.402 220.538 135.956 220.041C135.511 219.544 135.289 218.871 135.289 218.022V215.429H134.326V213.27H135.289V211.763L138.209 211.064V213.27H139.902L139.793 215.429H138.209V217.805C138.209 218.116 138.286 218.338 138.442 218.473C138.597 218.597 138.835 218.659 139.156 218.659C139.456 218.659 139.762 218.607 140.072 218.504V220.445C139.524 220.673 138.866 220.787 138.1 220.787ZM143.146 220.787C142.68 220.787 142.245 220.704 141.841 220.538C141.448 220.373 141.132 220.114 140.894 219.762C140.656 219.41 140.537 218.965 140.537 218.426C140.537 217.65 140.795 217.049 141.313 216.624C141.831 216.19 142.613 215.972 143.658 215.972H145.569V215.832C145.569 215.542 145.45 215.33 145.212 215.196C144.973 215.061 144.554 214.994 143.953 214.994C143.104 214.994 142.266 215.123 141.437 215.382V213.627C141.81 213.482 142.276 213.363 142.835 213.27C143.394 213.166 143.964 213.114 144.544 213.114C145.714 213.114 146.64 213.352 147.324 213.829C148.007 214.305 148.349 215.061 148.349 216.096V220.632H145.802L145.662 220.041C145.403 220.269 145.067 220.45 144.652 220.585C144.249 220.72 143.746 220.787 143.146 220.787ZM144.14 219.078C144.471 219.078 144.751 219.022 144.979 218.908C145.217 218.794 145.413 218.654 145.569 218.488V217.572H144.155C143.513 217.572 143.192 217.826 143.192 218.333C143.192 218.83 143.508 219.078 144.14 219.078ZM152.905 223.365C152.543 223.365 152.149 223.35 151.725 223.319C151.3 223.298 150.897 223.257 150.513 223.194C150.141 223.132 149.83 223.06 149.582 222.977V221.113C149.861 221.206 150.182 221.284 150.545 221.346C150.917 221.408 151.295 221.455 151.678 221.486C152.061 221.517 152.414 221.532 152.734 221.532C153.283 221.532 153.713 221.501 154.024 221.439C154.345 221.388 154.505 221.289 154.505 221.144C154.505 221.02 154.453 220.937 154.35 220.896C154.246 220.865 154.05 220.849 153.76 220.849H151.818C151.062 220.849 150.477 220.73 150.063 220.492C149.659 220.243 149.457 219.876 149.457 219.389C149.457 218.706 149.835 218.229 150.591 217.96C150.167 217.743 149.856 217.468 149.659 217.137C149.462 216.806 149.364 216.386 149.364 215.879C149.364 214.926 149.685 214.227 150.327 213.782C150.979 213.337 151.916 213.114 153.138 213.114C153.397 213.114 153.687 213.135 154.008 213.176C154.329 213.207 154.562 213.239 154.707 213.27H157.596L157.534 215.04H156.555C156.742 215.278 156.835 215.568 156.835 215.91C156.835 216.666 156.612 217.266 156.167 217.712C155.732 218.147 155.044 218.364 154.101 218.364C153.967 218.364 153.822 218.359 153.666 218.348C153.511 218.328 153.366 218.312 153.232 218.302C153.004 218.323 152.807 218.364 152.641 218.426C152.476 218.488 152.393 218.592 152.393 218.737C152.393 218.84 152.439 218.913 152.533 218.954C152.626 218.985 152.755 219.001 152.921 219.001H154.614C155.37 219.001 155.965 219.177 156.4 219.529C156.835 219.881 157.052 220.399 157.052 221.082C157.052 221.807 156.716 222.366 156.043 222.759C155.37 223.163 154.324 223.365 152.905 223.365ZM153.154 216.764C153.609 216.764 153.925 216.687 154.101 216.531C154.277 216.376 154.365 216.117 154.365 215.755C154.365 215.392 154.277 215.128 154.101 214.963C153.925 214.797 153.609 214.714 153.154 214.714C152.729 214.714 152.419 214.797 152.222 214.963C152.036 215.118 151.942 215.382 151.942 215.755C151.942 216.107 152.03 216.366 152.206 216.531C152.393 216.687 152.709 216.764 153.154 216.764ZM158.123 220.632V213.27H160.934L161.012 213.86C161.312 213.684 161.695 213.523 162.161 213.378C162.627 213.233 163.098 213.145 163.575 213.114V215.289C163.306 215.309 163.01 215.346 162.689 215.397C162.379 215.449 162.073 215.517 161.773 215.599C161.483 215.672 161.24 215.755 161.043 215.848V220.632H158.123ZM166.231 220.787C165.765 220.787 165.33 220.704 164.926 220.538C164.533 220.373 164.217 220.114 163.979 219.762C163.741 219.41 163.622 218.965 163.622 218.426C163.622 217.65 163.881 217.049 164.398 216.624C164.916 216.19 165.698 215.972 166.744 215.972H168.654V215.832C168.654 215.542 168.535 215.33 168.297 215.196C168.059 215.061 167.639 214.994 167.039 214.994C166.19 214.994 165.351 215.123 164.523 215.382V213.627C164.895 213.482 165.361 213.363 165.92 213.27C166.48 213.166 167.049 213.114 167.629 213.114C168.799 213.114 169.726 213.352 170.409 213.829C171.093 214.305 171.434 215.061 171.434 216.096V220.632H168.887L168.747 220.041C168.488 220.269 168.152 220.45 167.738 220.585C167.334 220.72 166.832 220.787 166.231 220.787ZM167.225 219.078C167.556 219.078 167.836 219.022 168.064 218.908C168.302 218.794 168.499 218.654 168.654 218.488V217.572H167.241C166.599 217.572 166.278 217.826 166.278 218.333C166.278 218.83 166.593 219.078 167.225 219.078ZM172.76 220.632V213.27H175.462L175.54 213.86C175.861 213.642 176.218 213.466 176.612 213.332C177.016 213.187 177.456 213.114 177.932 213.114C178.408 213.114 178.781 213.182 179.05 213.316C179.32 213.451 179.537 213.648 179.703 213.906C180.034 213.668 180.407 213.477 180.821 213.332C181.245 213.187 181.742 213.114 182.312 213.114C183.171 213.114 183.803 213.342 184.207 213.798C184.611 214.243 184.813 214.926 184.813 215.848V220.632H181.939V216.19C181.939 215.858 181.872 215.625 181.737 215.491C181.603 215.346 181.38 215.273 181.069 215.273C180.666 215.273 180.334 215.418 180.075 215.708C180.096 215.843 180.106 215.972 180.106 216.096C180.106 216.21 180.106 216.34 180.106 216.485V220.632H177.404V216.143C177.404 215.843 177.352 215.625 177.249 215.491C177.145 215.346 176.948 215.273 176.658 215.273C176.462 215.273 176.27 215.325 176.084 215.429C175.897 215.532 175.732 215.656 175.587 215.801V220.632H172.76Z" fill="#002BFF"/>
<rect x="296.805" y="44" width="207.09" height="64.4179" rx="8.62873" fill="white"/>
<path d="M348.954 81.8643C347.298 81.8643 346.029 81.4605 345.149 80.6528C344.279 79.8452 343.844 78.5405 343.844 76.7388C343.844 75.4963 344.041 74.4971 344.435 73.7412C344.828 72.975 345.403 72.421 346.159 72.0793C346.925 71.7273 347.857 71.5512 348.954 71.5512C350.052 71.5512 350.979 71.7273 351.734 72.0793C352.501 72.421 353.081 72.975 353.474 73.7412C353.867 74.4971 354.064 75.4963 354.064 76.7388C354.064 78.5405 353.624 79.8452 352.744 80.6528C351.864 81.4605 350.601 81.8643 348.954 81.8643ZM348.954 79.3792C349.7 79.3792 350.238 79.1721 350.57 78.758C350.911 78.3334 351.082 77.6604 351.082 76.7388C351.082 75.7552 350.911 75.0614 350.57 74.6576C350.238 74.2434 349.7 74.0363 348.954 74.0363C348.209 74.0363 347.665 74.2434 347.323 74.6576C346.992 75.0614 346.826 75.7552 346.826 76.7388C346.826 77.6604 346.992 78.3334 347.323 78.758C347.665 79.1721 348.209 79.3792 348.954 79.3792ZM355.152 85.0638V74.3469H357.683L357.823 74.9372C358.123 74.699 358.449 74.5178 358.802 74.3935C359.164 74.2589 359.583 74.1916 360.06 74.1916C361.157 74.1916 362.001 74.4712 362.591 75.0303C363.192 75.5791 363.492 76.5162 363.492 77.8416C363.492 79.1566 363.176 80.1558 362.545 80.8392C361.913 81.5226 361.043 81.8643 359.935 81.8643C359.2 81.8643 358.579 81.7245 358.072 81.4449V85.0638H355.152ZM359.19 79.7365C359.614 79.7365 359.941 79.5863 360.168 79.286C360.396 78.9858 360.51 78.5198 360.51 77.8882C360.51 77.2773 360.401 76.8631 360.184 76.6456C359.977 76.4282 359.656 76.3195 359.221 76.3195C358.786 76.3195 358.403 76.4644 358.072 76.7544V79.3637C358.237 79.4879 358.403 79.5811 358.569 79.6433C358.734 79.7054 358.941 79.7365 359.19 79.7365ZM368.64 81.8643C367.78 81.8643 367.019 81.7245 366.356 81.4449C365.704 81.155 365.192 80.7253 364.819 80.1558C364.456 79.5863 364.275 78.8822 364.275 78.0435C364.275 76.8734 364.607 75.9415 365.269 75.2478C365.932 74.5437 366.921 74.1916 368.236 74.1916C369.437 74.1916 370.374 74.4971 371.047 75.108C371.73 75.7189 372.072 76.5525 372.072 77.6086V78.8977H366.962C367.097 79.2912 367.361 79.5708 367.754 79.7365C368.148 79.9021 368.681 79.985 369.354 79.985C369.779 79.985 370.203 79.9487 370.628 79.8762C371.063 79.7934 371.409 79.7002 371.668 79.5967V81.3518C370.944 81.6935 369.934 81.8643 368.64 81.8643ZM366.962 77.3135H369.556V77.0495C369.556 76.7595 369.463 76.5214 369.276 76.335C369.1 76.1486 368.785 76.0554 368.329 76.0554C367.822 76.0554 367.464 76.1642 367.257 76.3816C367.061 76.5887 366.962 76.8993 366.962 77.3135ZM373.156 81.709V74.3469H375.889L375.967 74.9061C376.246 74.7197 376.614 74.554 377.07 74.4091C377.536 74.2641 378.033 74.1916 378.561 74.1916C379.482 74.1916 380.155 74.4194 380.58 74.875C381.004 75.3306 381.217 76.0347 381.217 76.9873V81.709H378.297V77.2824C378.297 76.9511 378.224 76.7129 378.079 76.568C377.934 76.423 377.681 76.3505 377.318 76.3505C377.101 76.3505 376.873 76.4023 376.635 76.5059C376.407 76.6094 376.221 76.7337 376.076 76.8786V81.709H373.156ZM385.714 81.709V71.7066H388.634V81.709H385.714ZM390.037 81.709V74.3469H392.771L392.849 74.9061C393.128 74.7197 393.496 74.554 393.951 74.4091C394.417 74.2641 394.914 74.1916 395.442 74.1916C396.364 74.1916 397.037 74.4194 397.461 74.875C397.886 75.3306 398.098 76.0347 398.098 76.9873V81.709H395.178V77.2824C395.178 76.9511 395.106 76.7129 394.961 76.568C394.816 76.423 394.562 76.3505 394.2 76.3505C393.982 76.3505 393.755 76.4023 393.516 76.5059C393.289 76.6094 393.102 76.7337 392.957 76.8786V81.709H390.037ZM402.284 81.8643C401.653 81.8643 401.057 81.8177 400.498 81.7245C399.949 81.6417 399.514 81.533 399.193 81.3983V79.3016C399.556 79.4672 399.986 79.5967 400.483 79.6899C400.99 79.7831 401.42 79.8296 401.772 79.8296C402.144 79.8296 402.424 79.8193 402.61 79.7986C402.807 79.7779 402.906 79.6899 402.906 79.5345C402.906 79.3585 402.735 79.2239 402.393 79.1307C402.051 79.0375 401.622 78.9029 401.104 78.7269C400.431 78.4887 399.929 78.2092 399.597 77.8882C399.266 77.5672 399.1 77.1012 399.1 76.4903C399.1 75.7552 399.39 75.1908 399.97 74.7974C400.55 74.3935 401.461 74.1916 402.704 74.1916C403.18 74.1916 403.672 74.2279 404.179 74.3004C404.687 74.3728 405.085 74.4557 405.375 74.5489V76.599C405.064 76.4644 404.723 76.3661 404.35 76.3039C403.988 76.2418 403.656 76.2108 403.356 76.2108C403.025 76.2108 402.73 76.2263 402.471 76.2573C402.212 76.2884 402.082 76.3764 402.082 76.5214C402.082 76.6871 402.227 76.8061 402.517 76.8786C402.818 76.9511 403.216 77.065 403.713 77.2203C404.272 77.386 404.707 77.5672 405.018 77.7639C405.339 77.9607 405.561 78.1988 405.686 78.4784C405.82 78.758 405.888 79.1048 405.888 79.519C405.888 80.2645 405.582 80.8444 404.971 81.2586C404.371 81.6624 403.475 81.8643 402.284 81.8643ZM409.905 81.8643C408.921 81.8643 408.207 81.6158 407.762 81.1188C407.316 80.6218 407.094 79.9487 407.094 79.0997V76.5059H406.131V74.3469H407.094V72.8404L410.014 72.1414V74.3469H411.707L411.598 76.5059H410.014V78.8822C410.014 79.1928 410.091 79.4155 410.247 79.5501C410.402 79.6743 410.64 79.7365 410.961 79.7365C411.261 79.7365 411.567 79.6847 411.878 79.5811V81.5226C411.329 81.7504 410.671 81.8643 409.905 81.8643ZM414.951 81.8643C414.485 81.8643 414.05 81.7815 413.646 81.6158C413.253 81.4501 412.937 81.1913 412.699 80.8392C412.461 80.4872 412.342 80.0419 412.342 79.5035C412.342 78.7269 412.601 78.1263 413.118 77.7018C413.636 77.2669 414.418 77.0495 415.464 77.0495H417.374V76.9097C417.374 76.6198 417.255 76.4075 417.017 76.2729C416.779 76.1383 416.359 76.071 415.759 76.071C414.91 76.071 414.071 76.2004 413.243 76.4593V74.7042C413.615 74.5592 414.081 74.4401 414.64 74.3469C415.2 74.2434 415.769 74.1916 416.349 74.1916C417.519 74.1916 418.446 74.4298 419.129 74.9061C419.812 75.3824 420.154 76.1383 420.154 77.1737V81.709H417.607L417.467 81.1188C417.208 81.3466 416.872 81.5278 416.458 81.6624C416.054 81.797 415.552 81.8643 414.951 81.8643ZM415.945 80.1558C416.276 80.1558 416.556 80.0989 416.784 79.985C417.022 79.8711 417.219 79.7313 417.374 79.5656V78.6492H415.961C415.319 78.6492 414.998 78.9029 414.998 79.4103C414.998 79.9073 415.313 80.1558 415.945 80.1558ZM424.711 84.4426C424.348 84.4426 423.955 84.427 423.53 84.396C423.106 84.3753 422.702 84.3338 422.319 84.2717C421.946 84.2096 421.635 84.1371 421.387 84.0543V82.1905C421.666 82.2837 421.987 82.3613 422.35 82.4234C422.722 82.4856 423.1 82.5322 423.484 82.5632C423.867 82.5943 424.219 82.6098 424.54 82.6098C425.088 82.6098 425.518 82.5788 425.829 82.5166C426.15 82.4649 426.31 82.3665 426.31 82.2215C426.31 82.0973 426.259 82.0144 426.155 81.973C426.051 81.942 425.855 81.9264 425.565 81.9264H423.623C422.867 81.9264 422.282 81.8074 421.868 81.5692C421.464 81.3207 421.262 80.9531 421.262 80.4664C421.262 79.7831 421.64 79.3067 422.396 79.0375C421.972 78.8201 421.661 78.5457 421.464 78.2143C421.268 77.883 421.169 77.4636 421.169 76.9563C421.169 76.0037 421.49 75.3047 422.132 74.8595C422.785 74.4143 423.722 74.1916 424.943 74.1916C425.202 74.1916 425.492 74.2123 425.813 74.2538C426.134 74.2848 426.367 74.3159 426.512 74.3469H429.401L429.339 76.1176H428.36C428.547 76.3557 428.64 76.6456 428.64 76.9873C428.64 77.7432 428.417 78.3438 427.972 78.789C427.537 79.2239 426.849 79.4414 425.906 79.4414C425.772 79.4414 425.627 79.4362 425.472 79.4258C425.316 79.4051 425.171 79.3896 425.037 79.3792C424.809 79.3999 424.612 79.4414 424.446 79.5035C424.281 79.5656 424.198 79.6692 424.198 79.8141C424.198 79.9177 424.245 79.9901 424.338 80.0316C424.431 80.0626 424.56 80.0782 424.726 80.0782H426.419C427.175 80.0782 427.77 80.2542 428.205 80.6062C428.64 80.9583 428.857 81.476 428.857 82.1594C428.857 82.8842 428.521 83.4434 427.848 83.8368C427.175 84.2407 426.129 84.4426 424.711 84.4426ZM424.959 77.8416C425.415 77.8416 425.73 77.7639 425.906 77.6086C426.082 77.4533 426.17 77.1944 426.17 76.832C426.17 76.4696 426.082 76.2056 425.906 76.0399C425.73 75.8742 425.415 75.7914 424.959 75.7914C424.534 75.7914 424.224 75.8742 424.027 76.0399C423.841 76.1952 423.748 76.4593 423.748 76.832C423.748 77.1841 423.836 77.4429 424.012 77.6086C424.198 77.7639 424.514 77.8416 424.959 77.8416ZM429.928 81.709V74.3469H432.74L432.817 74.9372C433.118 74.7611 433.501 74.6006 433.967 74.4557C434.433 74.3107 434.904 74.2227 435.38 74.1916V76.3661C435.111 76.3868 434.816 76.423 434.495 76.4748C434.184 76.5266 433.879 76.5939 433.578 76.6767C433.288 76.7492 433.045 76.832 432.848 76.9252V81.709H429.928ZM438.036 81.8643C437.57 81.8643 437.135 81.7815 436.732 81.6158C436.338 81.4501 436.022 81.1913 435.784 80.8392C435.546 80.4872 435.427 80.0419 435.427 79.5035C435.427 78.7269 435.686 78.1263 436.204 77.7018C436.721 77.2669 437.503 77.0495 438.549 77.0495H440.459V76.9097C440.459 76.6198 440.34 76.4075 440.102 76.2729C439.864 76.1383 439.444 76.071 438.844 76.071C437.995 76.071 437.156 76.2004 436.328 76.4593V74.7042C436.701 74.5592 437.166 74.4401 437.726 74.3469C438.285 74.2434 438.854 74.1916 439.434 74.1916C440.604 74.1916 441.531 74.4298 442.214 74.9061C442.898 75.3824 443.239 76.1383 443.239 77.1737V81.709H440.692L440.552 81.1188C440.294 81.3466 439.957 81.5278 439.543 81.6624C439.139 81.797 438.637 81.8643 438.036 81.8643ZM439.03 80.1558C439.362 80.1558 439.641 80.0989 439.869 79.985C440.107 79.8711 440.304 79.7313 440.459 79.5656V78.6492H439.046C438.404 78.6492 438.083 78.9029 438.083 79.4103C438.083 79.9073 438.399 80.1558 439.03 80.1558ZM444.565 81.709V74.3469H447.268L447.345 74.9372C447.666 74.7197 448.024 74.5437 448.417 74.4091C448.821 74.2641 449.261 74.1916 449.737 74.1916C450.214 74.1916 450.586 74.2589 450.856 74.3935C451.125 74.5282 451.342 74.7249 451.508 74.9837C451.839 74.7456 452.212 74.554 452.626 74.4091C453.051 74.2641 453.548 74.1916 454.117 74.1916C454.977 74.1916 455.608 74.4194 456.012 74.875C456.416 75.3203 456.618 76.0037 456.618 76.9252V81.709H453.744V77.2669C453.744 76.9356 453.677 76.7026 453.542 76.568C453.408 76.423 453.185 76.3505 452.875 76.3505C452.471 76.3505 452.139 76.4955 451.881 76.7854C451.901 76.92 451.912 77.0495 451.912 77.1737C451.912 77.2876 451.912 77.4171 451.912 77.562V81.709H449.209V77.2203C449.209 76.92 449.157 76.7026 449.054 76.568C448.95 76.423 448.754 76.3505 448.464 76.3505C448.267 76.3505 448.075 76.4023 447.889 76.5059C447.703 76.6094 447.537 76.7337 447.392 76.8786V81.709H444.565Z" fill="#002BFF"/>
<rect x="296.805" y="182.923" width="207.09" height="64.4179" rx="8.62873" fill="white"/>
<path d="M348.954 220.787C347.298 220.787 346.029 220.383 345.149 219.575C344.279 218.768 343.844 217.463 343.844 215.662C343.844 214.419 344.041 213.42 344.435 212.664C344.828 211.898 345.403 211.344 346.159 211.002C346.925 210.65 347.857 210.474 348.954 210.474C350.052 210.474 350.979 210.65 351.734 211.002C352.501 211.344 353.081 211.898 353.474 212.664C353.867 213.42 354.064 214.419 354.064 215.662C354.064 217.463 353.624 218.768 352.744 219.575C351.864 220.383 350.601 220.787 348.954 220.787ZM348.954 218.302C349.7 218.302 350.238 218.095 350.57 217.681C350.911 217.256 351.082 216.583 351.082 215.662C351.082 214.678 350.911 213.984 350.57 213.58C350.238 213.166 349.7 212.959 348.954 212.959C348.209 212.959 347.665 213.166 347.323 213.58C346.992 213.984 346.826 214.678 346.826 215.662C346.826 216.583 346.992 217.256 347.323 217.681C347.665 218.095 348.209 218.302 348.954 218.302ZM355.152 223.987V213.27H357.683L357.823 213.86C358.123 213.622 358.449 213.44 358.802 213.316C359.164 213.182 359.583 213.114 360.06 213.114C361.157 213.114 362.001 213.394 362.591 213.953C363.192 214.502 363.492 215.439 363.492 216.764C363.492 218.079 363.176 219.078 362.545 219.762C361.913 220.445 361.043 220.787 359.935 220.787C359.2 220.787 358.579 220.647 358.072 220.368V223.987H355.152ZM359.19 218.659C359.614 218.659 359.941 218.509 360.168 218.209C360.396 217.908 360.51 217.442 360.51 216.811C360.51 216.2 360.401 215.786 360.184 215.568C359.977 215.351 359.656 215.242 359.221 215.242C358.786 215.242 358.403 215.387 358.072 215.677V218.286C358.237 218.411 358.403 218.504 358.569 218.566C358.734 218.628 358.941 218.659 359.19 218.659ZM368.64 220.787C367.78 220.787 367.019 220.647 366.356 220.368C365.704 220.078 365.192 219.648 364.819 219.078C364.456 218.509 364.275 217.805 364.275 216.966C364.275 215.796 364.607 214.864 365.269 214.17C365.932 213.466 366.921 213.114 368.236 213.114C369.437 213.114 370.374 213.42 371.047 214.031C371.73 214.642 372.072 215.475 372.072 216.531V217.82H366.962C367.097 218.214 367.361 218.493 367.754 218.659C368.148 218.825 368.681 218.908 369.354 218.908C369.779 218.908 370.203 218.871 370.628 218.799C371.063 218.716 371.409 218.623 371.668 218.519V220.274C370.944 220.616 369.934 220.787 368.64 220.787ZM366.962 216.236H369.556V215.972C369.556 215.682 369.463 215.444 369.276 215.258C369.1 215.071 368.785 214.978 368.329 214.978C367.822 214.978 367.464 215.087 367.257 215.304C367.061 215.511 366.962 215.822 366.962 216.236ZM373.156 220.632V213.27H375.889L375.967 213.829C376.246 213.642 376.614 213.477 377.07 213.332C377.536 213.187 378.033 213.114 378.561 213.114C379.482 213.114 380.155 213.342 380.58 213.798C381.004 214.253 381.217 214.957 381.217 215.91V220.632H378.297V216.205C378.297 215.874 378.224 215.636 378.079 215.491C377.934 215.346 377.681 215.273 377.318 215.273C377.101 215.273 376.873 215.325 376.635 215.429C376.407 215.532 376.221 215.656 376.076 215.801V220.632H373.156ZM385.714 220.632V210.629H388.634V220.632H385.714ZM390.037 220.632V213.27H392.771L392.849 213.829C393.128 213.642 393.496 213.477 393.951 213.332C394.417 213.187 394.914 213.114 395.442 213.114C396.364 213.114 397.037 213.342 397.461 213.798C397.886 214.253 398.098 214.957 398.098 215.91V220.632H395.178V216.205C395.178 215.874 395.106 215.636 394.961 215.491C394.816 215.346 394.562 215.273 394.2 215.273C393.982 215.273 393.755 215.325 393.516 215.429C393.289 215.532 393.102 215.656 392.957 215.801V220.632H390.037ZM402.284 220.787C401.653 220.787 401.057 220.74 400.498 220.647C399.949 220.564 399.514 220.456 399.193 220.321V218.224C399.556 218.39 399.986 218.519 400.483 218.613C400.99 218.706 401.42 218.752 401.772 218.752C402.144 218.752 402.424 218.742 402.61 218.721C402.807 218.701 402.906 218.613 402.906 218.457C402.906 218.281 402.735 218.147 402.393 218.053C402.051 217.96 401.622 217.826 401.104 217.65C400.431 217.411 399.929 217.132 399.597 216.811C399.266 216.49 399.1 216.024 399.1 215.413C399.1 214.678 399.39 214.114 399.97 213.72C400.55 213.316 401.461 213.114 402.704 213.114C403.18 213.114 403.672 213.151 404.179 213.223C404.687 213.296 405.085 213.378 405.375 213.472V215.522C405.064 215.387 404.723 215.289 404.35 215.227C403.988 215.164 403.656 215.133 403.356 215.133C403.025 215.133 402.73 215.149 402.471 215.18C402.212 215.211 402.082 215.299 402.082 215.444C402.082 215.61 402.227 215.729 402.517 215.801C402.818 215.874 403.216 215.988 403.713 216.143C404.272 216.309 404.707 216.49 405.018 216.687C405.339 216.883 405.561 217.121 405.686 217.401C405.82 217.681 405.888 218.028 405.888 218.442C405.888 219.187 405.582 219.767 404.971 220.181C404.371 220.585 403.475 220.787 402.284 220.787ZM409.905 220.787C408.921 220.787 408.207 220.538 407.762 220.041C407.316 219.544 407.094 218.871 407.094 218.022V215.429H406.131V213.27H407.094V211.763L410.014 211.064V213.27H411.707L411.598 215.429H410.014V217.805C410.014 218.116 410.091 218.338 410.247 218.473C410.402 218.597 410.64 218.659 410.961 218.659C411.261 218.659 411.567 218.607 411.878 218.504V220.445C411.329 220.673 410.671 220.787 409.905 220.787ZM414.951 220.787C414.485 220.787 414.05 220.704 413.646 220.538C413.253 220.373 412.937 220.114 412.699 219.762C412.461 219.41 412.342 218.965 412.342 218.426C412.342 217.65 412.601 217.049 413.118 216.624C413.636 216.19 414.418 215.972 415.464 215.972H417.374V215.832C417.374 215.542 417.255 215.33 417.017 215.196C416.779 215.061 416.359 214.994 415.759 214.994C414.91 214.994 414.071 215.123 413.243 215.382V213.627C413.615 213.482 414.081 213.363 414.64 213.27C415.2 213.166 415.769 213.114 416.349 213.114C417.519 213.114 418.446 213.352 419.129 213.829C419.812 214.305 420.154 215.061 420.154 216.096V220.632H417.607L417.467 220.041C417.208 220.269 416.872 220.45 416.458 220.585C416.054 220.72 415.552 220.787 414.951 220.787ZM415.945 219.078C416.276 219.078 416.556 219.022 416.784 218.908C417.022 218.794 417.219 218.654 417.374 218.488V217.572H415.961C415.319 217.572 414.998 217.826 414.998 218.333C414.998 218.83 415.313 219.078 415.945 219.078ZM424.711 223.365C424.348 223.365 423.955 223.35 423.53 223.319C423.106 223.298 422.702 223.257 422.319 223.194C421.946 223.132 421.635 223.06 421.387 222.977V221.113C421.666 221.206 421.987 221.284 422.35 221.346C422.722 221.408 423.1 221.455 423.484 221.486C423.867 221.517 424.219 221.532 424.54 221.532C425.088 221.532 425.518 221.501 425.829 221.439C426.15 221.388 426.31 221.289 426.31 221.144C426.31 221.02 426.259 220.937 426.155 220.896C426.051 220.865 425.855 220.849 425.565 220.849H423.623C422.867 220.849 422.282 220.73 421.868 220.492C421.464 220.243 421.262 219.876 421.262 219.389C421.262 218.706 421.64 218.229 422.396 217.96C421.972 217.743 421.661 217.468 421.464 217.137C421.268 216.806 421.169 216.386 421.169 215.879C421.169 214.926 421.49 214.227 422.132 213.782C422.785 213.337 423.722 213.114 424.943 213.114C425.202 213.114 425.492 213.135 425.813 213.176C426.134 213.207 426.367 213.239 426.512 213.27H429.401L429.339 215.04H428.36C428.547 215.278 428.64 215.568 428.64 215.91C428.64 216.666 428.417 217.266 427.972 217.712C427.537 218.147 426.849 218.364 425.906 218.364C425.772 218.364 425.627 218.359 425.472 218.348C425.316 218.328 425.171 218.312 425.037 218.302C424.809 218.323 424.612 218.364 424.446 218.426C424.281 218.488 424.198 218.592 424.198 218.737C424.198 218.84 424.245 218.913 424.338 218.954C424.431 218.985 424.56 219.001 424.726 219.001H426.419C427.175 219.001 427.77 219.177 428.205 219.529C428.64 219.881 428.857 220.399 428.857 221.082C428.857 221.807 428.521 222.366 427.848 222.759C427.175 223.163 426.129 223.365 424.711 223.365ZM424.959 216.764C425.415 216.764 425.73 216.687 425.906 216.531C426.082 216.376 426.17 216.117 426.17 215.755C426.17 215.392 426.082 215.128 425.906 214.963C425.73 214.797 425.415 214.714 424.959 214.714C424.534 214.714 424.224 214.797 424.027 214.963C423.841 215.118 423.748 215.382 423.748 215.755C423.748 216.107 423.836 216.366 424.012 216.531C424.198 216.687 424.514 216.764 424.959 216.764ZM429.928 220.632V213.27H432.74L432.817 213.86C433.118 213.684 433.501 213.523 433.967 213.378C434.433 213.233 434.904 213.145 435.38 213.114V215.289C435.111 215.309 434.816 215.346 434.495 215.397C434.184 215.449 433.879 215.517 433.578 215.599C433.288 215.672 433.045 215.755 432.848 215.848V220.632H429.928ZM438.036 220.787C437.57 220.787 437.135 220.704 436.732 220.538C436.338 220.373 436.022 220.114 435.784 219.762C435.546 219.41 435.427 218.965 435.427 218.426C435.427 217.65 435.686 217.049 436.204 216.624C436.721 216.19 437.503 215.972 438.549 215.972H440.459V215.832C440.459 215.542 440.34 215.33 440.102 215.196C439.864 215.061 439.444 214.994 438.844 214.994C437.995 214.994 437.156 215.123 436.328 215.382V213.627C436.701 213.482 437.166 213.363 437.726 213.27C438.285 213.166 438.854 213.114 439.434 213.114C440.604 213.114 441.531 213.352 442.214 213.829C442.898 214.305 443.239 215.061 443.239 216.096V220.632H440.692L440.552 220.041C440.294 220.269 439.957 220.45 439.543 220.585C439.139 220.72 438.637 220.787 438.036 220.787ZM439.03 219.078C439.362 219.078 439.641 219.022 439.869 218.908C440.107 218.794 440.304 218.654 440.459 218.488V217.572H439.046C438.404 217.572 438.083 217.826 438.083 218.333C438.083 218.83 438.399 219.078 439.03 219.078ZM444.565 220.632V213.27H447.268L447.345 213.86C447.666 213.642 448.024 213.466 448.417 213.332C448.821 213.187 449.261 213.114 449.737 213.114C450.214 213.114 450.586 213.182 450.856 213.316C451.125 213.451 451.342 213.648 451.508 213.906C451.839 213.668 452.212 213.477 452.626 213.332C453.051 213.187 453.548 213.114 454.117 213.114C454.977 213.114 455.608 213.342 456.012 213.798C456.416 214.243 456.618 214.926 456.618 215.848V220.632H453.744V216.19C453.744 215.858 453.677 215.625 453.542 215.491C453.408 215.346 453.185 215.273 452.875 215.273C452.471 215.273 452.139 215.418 451.881 215.708C451.901 215.843 451.912 215.972 451.912 216.096C451.912 216.21 451.912 216.34 451.912 216.485V220.632H449.209V216.143C449.209 215.843 449.157 215.625 449.054 215.491C448.95 215.346 448.754 215.273 448.464 215.273C448.267 215.273 448.075 215.325 447.889 215.429C447.703 215.532 447.537 215.656 447.392 215.801V220.632H444.565Z" fill="#002BFF"/>
<rect x="568.61" y="44" width="207.09" height="64.4179" rx="8.62873" fill="white"/>
<path d="M620.759 81.8643C619.103 81.8643 617.834 81.4605 616.954 80.6528C616.084 79.8452 615.65 78.5405 615.65 76.7388C615.65 75.4963 615.846 74.4971 616.24 73.7412C616.633 72.975 617.208 72.421 617.964 72.0793C618.73 71.7273 619.662 71.5512 620.759 71.5512C621.857 71.5512 622.784 71.7273 623.54 72.0793C624.306 72.421 624.886 72.975 625.279 73.7412C625.673 74.4971 625.869 75.4963 625.869 76.7388C625.869 78.5405 625.429 79.8452 624.549 80.6528C623.669 81.4605 622.406 81.8643 620.759 81.8643ZM620.759 79.3792C621.505 79.3792 622.043 79.1721 622.375 78.758C622.716 78.3334 622.887 77.6604 622.887 76.7388C622.887 75.7552 622.716 75.0614 622.375 74.6576C622.043 74.2434 621.505 74.0363 620.759 74.0363C620.014 74.0363 619.47 74.2434 619.129 74.6576C618.797 75.0614 618.632 75.7552 618.632 76.7388C618.632 77.6604 618.797 78.3334 619.129 78.758C619.47 79.1721 620.014 79.3792 620.759 79.3792ZM626.957 85.0638V74.3469H629.488L629.628 74.9372C629.928 74.699 630.255 74.5178 630.607 74.3935C630.969 74.2589 631.388 74.1916 631.865 74.1916C632.962 74.1916 633.806 74.4712 634.396 75.0303C634.997 75.5791 635.297 76.5162 635.297 77.8416C635.297 79.1566 634.981 80.1558 634.35 80.8392C633.718 81.5226 632.848 81.8643 631.741 81.8643C631.005 81.8643 630.384 81.7245 629.877 81.4449V85.0638H626.957ZM630.995 79.7365C631.42 79.7365 631.746 79.5863 631.973 79.286C632.201 78.9858 632.315 78.5198 632.315 77.8882C632.315 77.2773 632.206 76.8631 631.989 76.6456C631.782 76.4282 631.461 76.3195 631.026 76.3195C630.591 76.3195 630.208 76.4644 629.877 76.7544V79.3637C630.042 79.4879 630.208 79.5811 630.374 79.6433C630.539 79.7054 630.746 79.7365 630.995 79.7365ZM640.445 81.8643C639.585 81.8643 638.824 81.7245 638.162 81.4449C637.509 81.155 636.997 80.7253 636.624 80.1558C636.262 79.5863 636.08 78.8822 636.08 78.0435C636.08 76.8734 636.412 75.9415 637.074 75.2478C637.737 74.5437 638.726 74.1916 640.041 74.1916C641.242 74.1916 642.179 74.4971 642.852 75.108C643.536 75.7189 643.877 76.5525 643.877 77.6086V78.8977H638.767C638.902 79.2912 639.166 79.5708 639.56 79.7365C639.953 79.9021 640.486 79.985 641.159 79.985C641.584 79.985 642.008 79.9487 642.433 79.8762C642.868 79.7934 643.215 79.7002 643.474 79.5967V81.3518C642.749 81.6935 641.739 81.8643 640.445 81.8643ZM638.767 77.3135H641.361V77.0495C641.361 76.7595 641.268 76.5214 641.082 76.335C640.906 76.1486 640.59 76.0554 640.134 76.0554C639.627 76.0554 639.27 76.1642 639.063 76.3816C638.866 76.5887 638.767 76.8993 638.767 77.3135ZM644.961 81.709V74.3469H647.694L647.772 74.9061C648.052 74.7197 648.419 74.554 648.875 74.4091C649.341 74.2641 649.838 74.1916 650.366 74.1916C651.287 74.1916 651.96 74.4194 652.385 74.875C652.81 75.3306 653.022 76.0347 653.022 76.9873V81.709H650.102V77.2824C650.102 76.9511 650.029 76.7129 649.884 76.568C649.739 76.423 649.486 76.3505 649.123 76.3505C648.906 76.3505 648.678 76.4023 648.44 76.5059C648.212 76.6094 648.026 76.7337 647.881 76.8786V81.709H644.961ZM657.52 81.709V71.7066H660.44V81.709H657.52ZM661.842 81.709V74.3469H664.576L664.654 74.9061C664.933 74.7197 665.301 74.554 665.756 74.4091C666.222 74.2641 666.719 74.1916 667.247 74.1916C668.169 74.1916 668.842 74.4194 669.267 74.875C669.691 75.3306 669.903 76.0347 669.903 76.9873V81.709H666.983V77.2824C666.983 76.9511 666.911 76.7129 666.766 76.568C666.621 76.423 666.367 76.3505 666.005 76.3505C665.788 76.3505 665.56 76.4023 665.322 76.5059C665.094 76.6094 664.907 76.7337 664.762 76.8786V81.709H661.842ZM674.089 81.8643C673.458 81.8643 672.862 81.8177 672.303 81.7245C671.755 81.6417 671.32 81.533 670.999 81.3983V79.3016C671.361 79.4672 671.791 79.5967 672.288 79.6899C672.795 79.7831 673.225 79.8296 673.577 79.8296C673.95 79.8296 674.229 79.8193 674.416 79.7986C674.612 79.7779 674.711 79.6899 674.711 79.5345C674.711 79.3585 674.54 79.2239 674.198 79.1307C673.856 79.0375 673.427 78.9029 672.909 78.7269C672.236 78.4887 671.734 78.2092 671.402 77.8882C671.071 77.5672 670.905 77.1012 670.905 76.4903C670.905 75.7552 671.195 75.1908 671.775 74.7974C672.355 74.3935 673.266 74.1916 674.509 74.1916C674.985 74.1916 675.477 74.2279 675.984 74.3004C676.492 74.3728 676.89 74.4557 677.18 74.5489V76.599C676.87 76.4644 676.528 76.3661 676.155 76.3039C675.793 76.2418 675.461 76.2108 675.161 76.2108C674.83 76.2108 674.535 76.2263 674.276 76.2573C674.017 76.2884 673.888 76.3764 673.888 76.5214C673.888 76.6871 674.033 76.8061 674.322 76.8786C674.623 76.9511 675.021 77.065 675.518 77.2203C676.078 77.386 676.512 77.5672 676.823 77.7639C677.144 77.9607 677.367 78.1988 677.491 78.4784C677.626 78.758 677.693 79.1048 677.693 79.519C677.693 80.2645 677.387 80.8444 676.776 81.2586C676.176 81.6624 675.28 81.8643 674.089 81.8643ZM681.71 81.8643C680.727 81.8643 680.012 81.6158 679.567 81.1188C679.122 80.6218 678.899 79.9487 678.899 79.0997V76.5059H677.936V74.3469H678.899V72.8404L681.819 72.1414V74.3469H683.512L683.403 76.5059H681.819V78.8822C681.819 79.1928 681.897 79.4155 682.052 79.5501C682.207 79.6743 682.445 79.7365 682.766 79.7365C683.067 79.7365 683.372 79.6847 683.683 79.5811V81.5226C683.134 81.7504 682.476 81.8643 681.71 81.8643ZM686.756 81.8643C686.29 81.8643 685.855 81.7815 685.452 81.6158C685.058 81.4501 684.742 81.1913 684.504 80.8392C684.266 80.4872 684.147 80.0419 684.147 79.5035C684.147 78.7269 684.406 78.1263 684.923 77.7018C685.441 77.2669 686.223 77.0495 687.269 77.0495H689.179V76.9097C689.179 76.6198 689.06 76.4075 688.822 76.2729C688.584 76.1383 688.164 76.071 687.564 76.071C686.715 76.071 685.876 76.2004 685.048 76.4593V74.7042C685.42 74.5592 685.886 74.4401 686.446 74.3469C687.005 74.2434 687.574 74.1916 688.154 74.1916C689.324 74.1916 690.251 74.4298 690.934 74.9061C691.618 75.3824 691.959 76.1383 691.959 77.1737V81.709H689.412L689.272 81.1188C689.013 81.3466 688.677 81.5278 688.263 81.6624C687.859 81.797 687.357 81.8643 686.756 81.8643ZM687.75 80.1558C688.082 80.1558 688.361 80.0989 688.589 79.985C688.827 79.8711 689.024 79.7313 689.179 79.5656V78.6492H687.766C687.124 78.6492 686.803 78.9029 686.803 79.4103C686.803 79.9073 687.119 80.1558 687.75 80.1558ZM696.516 84.4426C696.153 84.4426 695.76 84.427 695.335 84.396C694.911 84.3753 694.507 84.3338 694.124 84.2717C693.751 84.2096 693.44 84.1371 693.192 84.0543V82.1905C693.471 82.2837 693.792 82.3613 694.155 82.4234C694.528 82.4856 694.906 82.5322 695.289 82.5632C695.672 82.5943 696.024 82.6098 696.345 82.6098C696.894 82.6098 697.323 82.5788 697.634 82.5166C697.955 82.4649 698.115 82.3665 698.115 82.2215C698.115 82.0973 698.064 82.0144 697.96 81.973C697.857 81.942 697.66 81.9264 697.37 81.9264H695.428C694.673 81.9264 694.088 81.8074 693.673 81.5692C693.27 81.3207 693.068 80.9531 693.068 80.4664C693.068 79.7831 693.446 79.3067 694.201 79.0375C693.777 78.8201 693.466 78.5457 693.27 78.2143C693.073 77.883 692.974 77.4636 692.974 76.9563C692.974 76.0037 693.295 75.3047 693.937 74.8595C694.59 74.4143 695.527 74.1916 696.749 74.1916C697.008 74.1916 697.297 74.2123 697.618 74.2538C697.939 74.2848 698.172 74.3159 698.317 74.3469H701.206L701.144 76.1176H700.166C700.352 76.3557 700.445 76.6456 700.445 76.9873C700.445 77.7432 700.223 78.3438 699.777 78.789C699.342 79.2239 698.654 79.4414 697.712 79.4414C697.577 79.4414 697.432 79.4362 697.277 79.4258C697.121 79.4051 696.976 79.3896 696.842 79.3792C696.614 79.3999 696.417 79.4414 696.252 79.5035C696.086 79.5656 696.003 79.6692 696.003 79.8141C696.003 79.9177 696.05 79.9901 696.143 80.0316C696.236 80.0626 696.366 80.0782 696.531 80.0782H698.224C698.98 80.0782 699.575 80.2542 700.01 80.6062C700.445 80.9583 700.663 81.476 700.663 82.1594C700.663 82.8842 700.326 83.4434 699.653 83.8368C698.98 84.2407 697.934 84.4426 696.516 84.4426ZM696.764 77.8416C697.22 77.8416 697.536 77.7639 697.712 77.6086C697.888 77.4533 697.976 77.1944 697.976 76.832C697.976 76.4696 697.888 76.2056 697.712 76.0399C697.536 75.8742 697.22 75.7914 696.764 75.7914C696.34 75.7914 696.029 75.8742 695.832 76.0399C695.646 76.1952 695.553 76.4593 695.553 76.832C695.553 77.1841 695.641 77.4429 695.817 77.6086C696.003 77.7639 696.319 77.8416 696.764 77.8416ZM701.733 81.709V74.3469H704.545L704.622 74.9372C704.923 74.7611 705.306 74.6006 705.772 74.4557C706.238 74.3107 706.709 74.2227 707.185 74.1916V76.3661C706.916 76.3868 706.621 76.423 706.3 76.4748C705.989 76.5266 705.684 76.5939 705.383 76.6767C705.094 76.7492 704.85 76.832 704.653 76.9252V81.709H701.733ZM709.841 81.8643C709.375 81.8643 708.941 81.7815 708.537 81.6158C708.143 81.4501 707.827 81.1913 707.589 80.8392C707.351 80.4872 707.232 80.0419 707.232 79.5035C707.232 78.7269 707.491 78.1263 708.009 77.7018C708.526 77.2669 709.308 77.0495 710.354 77.0495H712.264V76.9097C712.264 76.6198 712.145 76.4075 711.907 76.2729C711.669 76.1383 711.25 76.071 710.649 76.071C709.8 76.071 708.961 76.2004 708.133 76.4593V74.7042C708.506 74.5592 708.972 74.4401 709.531 74.3469C710.09 74.2434 710.659 74.1916 711.239 74.1916C712.409 74.1916 713.336 74.4298 714.019 74.9061C714.703 75.3824 715.045 76.1383 715.045 77.1737V81.709H712.497L712.358 81.1188C712.099 81.3466 711.762 81.5278 711.348 81.6624C710.944 81.797 710.442 81.8643 709.841 81.8643ZM710.835 80.1558C711.167 80.1558 711.446 80.0989 711.674 79.985C711.912 79.8711 712.109 79.7313 712.264 79.5656V78.6492H710.851C710.209 78.6492 709.888 78.9029 709.888 79.4103C709.888 79.9073 710.204 80.1558 710.835 80.1558ZM716.37 81.709V74.3469H719.073L719.151 74.9372C719.471 74.7197 719.829 74.5437 720.222 74.4091C720.626 74.2641 721.066 74.1916 721.542 74.1916C722.019 74.1916 722.391 74.2589 722.661 74.3935C722.93 74.5282 723.147 74.7249 723.313 74.9837C723.644 74.7456 724.017 74.554 724.431 74.4091C724.856 74.2641 725.353 74.1916 725.922 74.1916C726.782 74.1916 727.413 74.4194 727.817 74.875C728.221 75.3203 728.423 76.0037 728.423 76.9252V81.709H725.55V77.2669C725.55 76.9356 725.482 76.7026 725.348 76.568C725.213 76.423 724.99 76.3505 724.68 76.3505C724.276 76.3505 723.945 76.4955 723.686 76.7854C723.706 76.92 723.717 77.0495 723.717 77.1737C723.717 77.2876 723.717 77.4171 723.717 77.562V81.709H721.014V77.2203C721.014 76.92 720.963 76.7026 720.859 76.568C720.755 76.423 720.559 76.3505 720.269 76.3505C720.072 76.3505 719.88 76.4023 719.694 76.5059C719.508 76.6094 719.342 76.7337 719.197 76.8786V81.709H716.37Z" fill="#002BFF"/>
<rect x="568.61" y="182.923" width="207.09" height="64.4179" rx="8.62873" fill="white"/>
<path d="M620.759 220.787C619.103 220.787 617.834 220.383 616.954 219.575C616.084 218.768 615.65 217.463 615.65 215.662C615.65 214.419 615.846 213.42 616.24 212.664C616.633 211.898 617.208 211.344 617.964 211.002C618.73 210.65 619.662 210.474 620.759 210.474C621.857 210.474 622.784 210.65 623.54 211.002C624.306 211.344 624.886 211.898 625.279 212.664C625.673 213.42 625.869 214.419 625.869 215.662C625.869 217.463 625.429 218.768 624.549 219.575C623.669 220.383 622.406 220.787 620.759 220.787ZM620.759 218.302C621.505 218.302 622.043 218.095 622.375 217.681C622.716 217.256 622.887 216.583 622.887 215.662C622.887 214.678 622.716 213.984 622.375 213.58C622.043 213.166 621.505 212.959 620.759 212.959C620.014 212.959 619.47 213.166 619.129 213.58C618.797 213.984 618.632 214.678 618.632 215.662C618.632 216.583 618.797 217.256 619.129 217.681C619.47 218.095 620.014 218.302 620.759 218.302ZM626.957 223.987V213.27H629.488L629.628 213.86C629.928 213.622 630.255 213.44 630.607 213.316C630.969 213.182 631.388 213.114 631.865 213.114C632.962 213.114 633.806 213.394 634.396 213.953C634.997 214.502 635.297 215.439 635.297 216.764C635.297 218.079 634.981 219.078 634.35 219.762C633.718 220.445 632.848 220.787 631.741 220.787C631.005 220.787 630.384 220.647 629.877 220.368V223.987H626.957ZM630.995 218.659C631.42 218.659 631.746 218.509 631.973 218.209C632.201 217.908 632.315 217.442 632.315 216.811C632.315 216.2 632.206 215.786 631.989 215.568C631.782 215.351 631.461 215.242 631.026 215.242C630.591 215.242 630.208 215.387 629.877 215.677V218.286C630.042 218.411 630.208 218.504 630.374 218.566C630.539 218.628 630.746 218.659 630.995 218.659ZM640.445 220.787C639.585 220.787 638.824 220.647 638.162 220.368C637.509 220.078 636.997 219.648 636.624 219.078C636.262 218.509 636.08 217.805 636.08 216.966C636.08 215.796 636.412 214.864 637.074 214.17C637.737 213.466 638.726 213.114 640.041 213.114C641.242 213.114 642.179 213.42 642.852 214.031C643.536 214.642 643.877 215.475 643.877 216.531V217.82H638.767C638.902 218.214 639.166 218.493 639.56 218.659C639.953 218.825 640.486 218.908 641.159 218.908C641.584 218.908 642.008 218.871 642.433 218.799C642.868 218.716 643.215 218.623 643.474 218.519V220.274C642.749 220.616 641.739 220.787 640.445 220.787ZM638.767 216.236H641.361V215.972C641.361 215.682 641.268 215.444 641.082 215.258C640.906 215.071 640.59 214.978 640.134 214.978C639.627 214.978 639.27 215.087 639.063 215.304C638.866 215.511 638.767 215.822 638.767 216.236ZM644.961 220.632V213.27H647.694L647.772 213.829C648.052 213.642 648.419 213.477 648.875 213.332C649.341 213.187 649.838 213.114 650.366 213.114C651.287 213.114 651.96 213.342 652.385 213.798C652.81 214.253 653.022 214.957 653.022 215.91V220.632H650.102V216.205C650.102 215.874 650.029 215.636 649.884 215.491C649.739 215.346 649.486 215.273 649.123 215.273C648.906 215.273 648.678 215.325 648.44 215.429C648.212 215.532 648.026 215.656 647.881 215.801V220.632H644.961ZM657.52 220.632V210.629H660.44V220.632H657.52ZM661.842 220.632V213.27H664.576L664.654 213.829C664.933 213.642 665.301 213.477 665.756 213.332C666.222 213.187 666.719 213.114 667.247 213.114C668.169 213.114 668.842 213.342 669.267 213.798C669.691 214.253 669.903 214.957 669.903 215.91V220.632H666.983V216.205C666.983 215.874 666.911 215.636 666.766 215.491C666.621 215.346 666.367 215.273 666.005 215.273C665.788 215.273 665.56 215.325 665.322 215.429C665.094 215.532 664.907 215.656 664.762 215.801V220.632H661.842ZM674.089 220.787C673.458 220.787 672.862 220.74 672.303 220.647C671.755 220.564 671.32 220.456 670.999 220.321V218.224C671.361 218.39 671.791 218.519 672.288 218.613C672.795 218.706 673.225 218.752 673.577 218.752C673.95 218.752 674.229 218.742 674.416 218.721C674.612 218.701 674.711 218.613 674.711 218.457C674.711 218.281 674.54 218.147 674.198 218.053C673.856 217.96 673.427 217.826 672.909 217.65C672.236 217.411 671.734 217.132 671.402 216.811C671.071 216.49 670.905 216.024 670.905 215.413C670.905 214.678 671.195 214.114 671.775 213.72C672.355 213.316 673.266 213.114 674.509 213.114C674.985 213.114 675.477 213.151 675.984 213.223C676.492 213.296 676.89 213.378 677.18 213.472V215.522C676.87 215.387 676.528 215.289 676.155 215.227C675.793 215.164 675.461 215.133 675.161 215.133C674.83 215.133 674.535 215.149 674.276 215.18C674.017 215.211 673.888 215.299 673.888 215.444C673.888 215.61 674.033 215.729 674.322 215.801C674.623 215.874 675.021 215.988 675.518 216.143C676.078 216.309 676.512 216.49 676.823 216.687C677.144 216.883 677.367 217.121 677.491 217.401C677.626 217.681 677.693 218.028 677.693 218.442C677.693 219.187 677.387 219.767 676.776 220.181C676.176 220.585 675.28 220.787 674.089 220.787ZM681.71 220.787C680.727 220.787 680.012 220.538 679.567 220.041C679.122 219.544 678.899 218.871 678.899 218.022V215.429H677.936V213.27H678.899V211.763L681.819 211.064V213.27H683.512L683.403 215.429H681.819V217.805C681.819 218.116 681.897 218.338 682.052 218.473C682.207 218.597 682.445 218.659 682.766 218.659C683.067 218.659 683.372 218.607 683.683 218.504V220.445C683.134 220.673 682.476 220.787 681.71 220.787ZM686.756 220.787C686.29 220.787 685.855 220.704 685.452 220.538C685.058 220.373 684.742 220.114 684.504 219.762C684.266 219.41 684.147 218.965 684.147 218.426C684.147 217.65 684.406 217.049 684.923 216.624C685.441 216.19 686.223 215.972 687.269 215.972H689.179V215.832C689.179 215.542 689.06 215.33 688.822 215.196C688.584 215.061 688.164 214.994 687.564 214.994C686.715 214.994 685.876 215.123 685.048 215.382V213.627C685.42 213.482 685.886 213.363 686.446 213.27C687.005 213.166 687.574 213.114 688.154 213.114C689.324 213.114 690.251 213.352 690.934 213.829C691.618 214.305 691.959 215.061 691.959 216.096V220.632H689.412L689.272 220.041C689.013 220.269 688.677 220.45 688.263 220.585C687.859 220.72 687.357 220.787 686.756 220.787ZM687.75 219.078C688.082 219.078 688.361 219.022 688.589 218.908C688.827 218.794 689.024 218.654 689.179 218.488V217.572H687.766C687.124 217.572 686.803 217.826 686.803 218.333C686.803 218.83 687.119 219.078 687.75 219.078ZM696.516 223.365C696.153 223.365 695.76 223.35 695.335 223.319C694.911 223.298 694.507 223.257 694.124 223.194C693.751 223.132 693.44 223.06 693.192 222.977V221.113C693.471 221.206 693.792 221.284 694.155 221.346C694.528 221.408 694.906 221.455 695.289 221.486C695.672 221.517 696.024 221.532 696.345 221.532C696.894 221.532 697.323 221.501 697.634 221.439C697.955 221.388 698.115 221.289 698.115 221.144C698.115 221.02 698.064 220.937 697.96 220.896C697.857 220.865 697.66 220.849 697.37 220.849H695.428C694.673 220.849 694.088 220.73 693.673 220.492C693.27 220.243 693.068 219.876 693.068 219.389C693.068 218.706 693.446 218.229 694.201 217.96C693.777 217.743 693.466 217.468 693.27 217.137C693.073 216.806 692.974 216.386 692.974 215.879C692.974 214.926 693.295 214.227 693.937 213.782C694.59 213.337 695.527 213.114 696.749 213.114C697.008 213.114 697.297 213.135 697.618 213.176C697.939 213.207 698.172 213.239 698.317 213.27H701.206L701.144 215.04H700.166C700.352 215.278 700.445 215.568 700.445 215.91C700.445 216.666 700.223 217.266 699.777 217.712C699.342 218.147 698.654 218.364 697.712 218.364C697.577 218.364 697.432 218.359 697.277 218.348C697.121 218.328 696.976 218.312 696.842 218.302C696.614 218.323 696.417 218.364 696.252 218.426C696.086 218.488 696.003 218.592 696.003 218.737C696.003 218.84 696.05 218.913 696.143 218.954C696.236 218.985 696.366 219.001 696.531 219.001H698.224C698.98 219.001 699.575 219.177 700.01 219.529C700.445 219.881 700.663 220.399 700.663 221.082C700.663 221.807 700.326 222.366 699.653 222.759C698.98 223.163 697.934 223.365 696.516 223.365ZM696.764 216.764C697.22 216.764 697.536 216.687 697.712 216.531C697.888 216.376 697.976 216.117 697.976 215.755C697.976 215.392 697.888 215.128 697.712 214.963C697.536 214.797 697.22 214.714 696.764 214.714C696.34 214.714 696.029 214.797 695.832 214.963C695.646 215.118 695.553 215.382 695.553 215.755C695.553 216.107 695.641 216.366 695.817 216.531C696.003 216.687 696.319 216.764 696.764 216.764ZM701.733 220.632V213.27H704.545L704.622 213.86C704.923 213.684 705.306 213.523 705.772 213.378C706.238 213.233 706.709 213.145 707.185 213.114V215.289C706.916 215.309 706.621 215.346 706.3 215.397C705.989 215.449 705.684 215.517 705.383 215.599C705.094 215.672 704.85 215.755 704.653 215.848V220.632H701.733ZM709.841 220.787C709.375 220.787 708.941 220.704 708.537 220.538C708.143 220.373 707.827 220.114 707.589 219.762C707.351 219.41 707.232 218.965 707.232 218.426C707.232 217.65 707.491 217.049 708.009 216.624C708.526 216.19 709.308 215.972 710.354 215.972H712.264V215.832C712.264 215.542 712.145 215.33 711.907 215.196C711.669 215.061 711.25 214.994 710.649 214.994C709.8 214.994 708.961 215.123 708.133 215.382V213.627C708.506 213.482 708.972 213.363 709.531 213.27C710.09 213.166 710.659 213.114 711.239 213.114C712.409 213.114 713.336 213.352 714.019 213.829C714.703 214.305 715.045 215.061 715.045 216.096V220.632H712.497L712.358 220.041C712.099 220.269 711.762 220.45 711.348 220.585C710.944 220.72 710.442 220.787 709.841 220.787ZM710.835 219.078C711.167 219.078 711.446 219.022 711.674 218.908C711.912 218.794 712.109 218.654 712.264 218.488V217.572H710.851C710.209 217.572 709.888 217.826 709.888 218.333C709.888 218.83 710.204 219.078 710.835 219.078ZM716.37 220.632V213.27H719.073L719.151 213.86C719.471 213.642 719.829 213.466 720.222 213.332C720.626 213.187 721.066 213.114 721.542 213.114C722.019 213.114 722.391 213.182 722.661 213.316C722.93 213.451 723.147 213.648 723.313 213.906C723.644 213.668 724.017 213.477 724.431 213.332C724.856 213.187 725.353 213.114 725.922 213.114C726.782 213.114 727.413 213.342 727.817 213.798C728.221 214.243 728.423 214.926 728.423 215.848V220.632H725.55V216.19C725.55 215.858 725.482 215.625 725.348 215.491C725.213 215.346 724.99 215.273 724.68 215.273C724.276 215.273 723.945 215.418 723.686 215.708C723.706 215.843 723.717 215.972 723.717 216.096C723.717 216.21 723.717 216.34 723.717 216.485V220.632H721.014V216.143C721.014 215.843 720.963 215.625 720.859 215.491C720.755 215.346 720.559 215.273 720.269 215.273C720.072 215.273 719.88 215.325 719.694 215.429C719.508 215.532 719.342 215.656 719.197 215.801V220.632H716.37Z" fill="#002BFF"/>
<rect x="840.416" y="44" width="207.09" height="64.4179" rx="8.62873" fill="white"/>
<path d="M892.565 81.8643C890.908 81.8643 889.64 81.4605 888.759 80.6528C887.89 79.8452 887.455 78.5405 887.455 76.7388C887.455 75.4963 887.651 74.4971 888.045 73.7412C888.438 72.975 889.013 72.421 889.769 72.0793C890.535 71.7273 891.467 71.5512 892.565 71.5512C893.662 71.5512 894.589 71.7273 895.345 72.0793C896.111 72.421 896.691 72.975 897.084 73.7412C897.478 74.4971 897.675 75.4963 897.675 76.7388C897.675 78.5405 897.235 79.8452 896.354 80.6528C895.474 81.4605 894.211 81.8643 892.565 81.8643ZM892.565 79.3792C893.31 79.3792 893.849 79.1721 894.18 78.758C894.522 78.3334 894.692 77.6604 894.692 76.7388C894.692 75.7552 894.522 75.0614 894.18 74.6576C893.849 74.2434 893.31 74.0363 892.565 74.0363C891.819 74.0363 891.276 74.2434 890.934 74.6576C890.602 75.0614 890.437 75.7552 890.437 76.7388C890.437 77.6604 890.602 78.3334 890.934 78.758C891.276 79.1721 891.819 79.3792 892.565 79.3792ZM898.762 85.0638V74.3469H901.294L901.433 74.9372C901.734 74.699 902.06 74.5178 902.412 74.3935C902.774 74.2589 903.194 74.1916 903.67 74.1916C904.768 74.1916 905.611 74.4712 906.202 75.0303C906.802 75.5791 907.102 76.5162 907.102 77.8416C907.102 79.1566 906.787 80.1558 906.155 80.8392C905.523 81.5226 904.654 81.8643 903.546 81.8643C902.811 81.8643 902.189 81.7245 901.682 81.4449V85.0638H898.762ZM902.8 79.7365C903.225 79.7365 903.551 79.5863 903.779 79.286C904.006 78.9858 904.12 78.5198 904.12 77.8882C904.12 77.2773 904.012 76.8631 903.794 76.6456C903.587 76.4282 903.266 76.3195 902.831 76.3195C902.396 76.3195 902.013 76.4644 901.682 76.7544V79.3637C901.848 79.4879 902.013 79.5811 902.179 79.6433C902.345 79.7054 902.552 79.7365 902.8 79.7365ZM912.25 81.8643C911.391 81.8643 910.63 81.7245 909.967 81.4449C909.315 81.155 908.802 80.7253 908.429 80.1558C908.067 79.5863 907.886 78.8822 907.886 78.0435C907.886 76.8734 908.217 75.9415 908.88 75.2478C909.542 74.5437 910.531 74.1916 911.846 74.1916C913.047 74.1916 913.984 74.4971 914.657 75.108C915.341 75.7189 915.683 76.5525 915.683 77.6086V78.8977H910.573C910.707 79.2912 910.971 79.5708 911.365 79.7365C911.758 79.9021 912.291 79.985 912.964 79.985C913.389 79.985 913.814 79.9487 914.238 79.8762C914.673 79.7934 915.02 79.7002 915.279 79.5967V81.3518C914.554 81.6935 913.544 81.8643 912.25 81.8643ZM910.573 77.3135H913.166V77.0495C913.166 76.7595 913.073 76.5214 912.887 76.335C912.711 76.1486 912.395 76.0554 911.939 76.0554C911.432 76.0554 911.075 76.1642 910.868 76.3816C910.671 76.5887 910.573 76.8993 910.573 77.3135ZM916.766 81.709V74.3469H919.5L919.577 74.9061C919.857 74.7197 920.224 74.554 920.68 74.4091C921.146 74.2641 921.643 74.1916 922.171 74.1916C923.093 74.1916 923.766 74.4194 924.19 74.875C924.615 75.3306 924.827 76.0347 924.827 76.9873V81.709H921.907V77.2824C921.907 76.9511 921.834 76.7129 921.69 76.568C921.545 76.423 921.291 76.3505 920.928 76.3505C920.711 76.3505 920.483 76.4023 920.245 76.5059C920.017 76.6094 919.831 76.7337 919.686 76.8786V81.709H916.766ZM929.325 81.709V71.7066H932.245V81.709H929.325ZM933.648 81.709V74.3469H936.381L936.459 74.9061C936.738 74.7197 937.106 74.554 937.562 74.4091C938.028 74.2641 938.525 74.1916 939.053 74.1916C939.974 74.1916 940.647 74.4194 941.072 74.875C941.496 75.3306 941.709 76.0347 941.709 76.9873V81.709H938.789V77.2824C938.789 76.9511 938.716 76.7129 938.571 76.568C938.426 76.423 938.173 76.3505 937.81 76.3505C937.593 76.3505 937.365 76.4023 937.127 76.5059C936.899 76.6094 936.713 76.7337 936.568 76.8786V81.709H933.648ZM945.895 81.8643C945.263 81.8643 944.668 81.8177 944.108 81.7245C943.56 81.6417 943.125 81.533 942.804 81.3983V79.3016C943.166 79.4672 943.596 79.5967 944.093 79.6899C944.6 79.7831 945.03 79.8296 945.382 79.8296C945.755 79.8296 946.034 79.8193 946.221 79.7986C946.418 79.7779 946.516 79.6899 946.516 79.5345C946.516 79.3585 946.345 79.2239 946.003 79.1307C945.662 79.0375 945.232 78.9029 944.714 78.7269C944.041 78.4887 943.539 78.2092 943.208 77.8882C942.876 77.5672 942.711 77.1012 942.711 76.4903C942.711 75.7552 943.001 75.1908 943.58 74.7974C944.16 74.3935 945.071 74.1916 946.314 74.1916C946.79 74.1916 947.282 74.2279 947.79 74.3004C948.297 74.3728 948.696 74.4557 948.985 74.5489V76.599C948.675 76.4644 948.333 76.3661 947.96 76.3039C947.598 76.2418 947.267 76.2108 946.966 76.2108C946.635 76.2108 946.34 76.2263 946.081 76.2573C945.822 76.2884 945.693 76.3764 945.693 76.5214C945.693 76.6871 945.838 76.8061 946.128 76.8786C946.428 76.9511 946.827 77.065 947.324 77.2203C947.883 77.386 948.318 77.5672 948.628 77.7639C948.949 77.9607 949.172 78.1988 949.296 78.4784C949.431 78.758 949.498 79.1048 949.498 79.519C949.498 80.2645 949.193 80.8444 948.582 81.2586C947.981 81.6624 947.085 81.8643 945.895 81.8643ZM953.515 81.8643C952.532 81.8643 951.817 81.6158 951.372 81.1188C950.927 80.6218 950.704 79.9487 950.704 79.0997V76.5059H949.741V74.3469H950.704V72.8404L953.624 72.1414V74.3469H955.317L955.208 76.5059H953.624V78.8822C953.624 79.1928 953.702 79.4155 953.857 79.5501C954.012 79.6743 954.251 79.7365 954.572 79.7365C954.872 79.7365 955.177 79.6847 955.488 79.5811V81.5226C954.939 81.7504 954.282 81.8643 953.515 81.8643ZM958.561 81.8643C958.095 81.8643 957.661 81.7815 957.257 81.6158C956.863 81.4501 956.547 81.1913 956.309 80.8392C956.071 80.4872 955.952 80.0419 955.952 79.5035C955.952 78.7269 956.211 78.1263 956.729 77.7018C957.246 77.2669 958.028 77.0495 959.074 77.0495H960.984V76.9097C960.984 76.6198 960.865 76.4075 960.627 76.2729C960.389 76.1383 959.97 76.071 959.369 76.071C958.52 76.071 957.681 76.2004 956.853 76.4593V74.7042C957.226 74.5592 957.692 74.4401 958.251 74.3469C958.81 74.2434 959.379 74.1916 959.959 74.1916C961.129 74.1916 962.056 74.4298 962.739 74.9061C963.423 75.3824 963.764 76.1383 963.764 77.1737V81.709H961.217L961.077 81.1188C960.819 81.3466 960.482 81.5278 960.068 81.6624C959.664 81.797 959.162 81.8643 958.561 81.8643ZM959.555 80.1558C959.887 80.1558 960.166 80.0989 960.394 79.985C960.632 79.8711 960.829 79.7313 960.984 79.5656V78.6492H959.571C958.929 78.6492 958.608 78.9029 958.608 79.4103C958.608 79.9073 958.924 80.1558 959.555 80.1558ZM968.321 84.4426C967.958 84.4426 967.565 84.427 967.14 84.396C966.716 84.3753 966.312 84.3338 965.929 84.2717C965.556 84.2096 965.246 84.1371 964.997 84.0543V82.1905C965.277 82.2837 965.598 82.3613 965.96 82.4234C966.333 82.4856 966.711 82.5322 967.094 82.5632C967.477 82.5943 967.829 82.6098 968.15 82.6098C968.699 82.6098 969.129 82.5788 969.439 82.5166C969.76 82.4649 969.921 82.3665 969.921 82.2215C969.921 82.0973 969.869 82.0144 969.765 81.973C969.662 81.942 969.465 81.9264 969.175 81.9264H967.234C966.478 81.9264 965.893 81.8074 965.479 81.5692C965.075 81.3207 964.873 80.9531 964.873 80.4664C964.873 79.7831 965.251 79.3067 966.007 79.0375C965.582 78.8201 965.271 78.5457 965.075 78.2143C964.878 77.883 964.78 77.4636 964.78 76.9563C964.78 76.0037 965.101 75.3047 965.743 74.8595C966.395 74.4143 967.332 74.1916 968.554 74.1916C968.813 74.1916 969.103 74.2123 969.424 74.2538C969.745 74.2848 969.978 74.3159 970.123 74.3469H973.011L972.949 76.1176H971.971C972.157 76.3557 972.25 76.6456 972.25 76.9873C972.25 77.7432 972.028 78.3438 971.583 78.789C971.148 79.2239 970.459 79.4414 969.517 79.4414C969.382 79.4414 969.237 79.4362 969.082 79.4258C968.927 79.4051 968.782 79.3896 968.647 79.3792C968.419 79.3999 968.223 79.4414 968.057 79.5035C967.891 79.5656 967.808 79.6692 967.808 79.8141C967.808 79.9177 967.855 79.9901 967.948 80.0316C968.041 80.0626 968.171 80.0782 968.336 80.0782H970.029C970.785 80.0782 971.381 80.2542 971.816 80.6062C972.25 80.9583 972.468 81.476 972.468 82.1594C972.468 82.8842 972.131 83.4434 971.458 83.8368C970.785 84.2407 969.739 84.4426 968.321 84.4426ZM968.569 77.8416C969.025 77.8416 969.341 77.7639 969.517 77.6086C969.693 77.4533 969.781 77.1944 969.781 76.832C969.781 76.4696 969.693 76.2056 969.517 76.0399C969.341 75.8742 969.025 75.7914 968.569 75.7914C968.145 75.7914 967.834 75.8742 967.637 76.0399C967.451 76.1952 967.358 76.4593 967.358 76.832C967.358 77.1841 967.446 77.4429 967.622 77.6086C967.808 77.7639 968.124 77.8416 968.569 77.8416ZM973.539 81.709V74.3469H976.35L976.428 74.9372C976.728 74.7611 977.111 74.6006 977.577 74.4557C978.043 74.3107 978.514 74.2227 978.99 74.1916V76.3661C978.721 76.3868 978.426 76.423 978.105 76.4748C977.794 76.5266 977.489 76.5939 977.189 76.6767C976.899 76.7492 976.655 76.832 976.459 76.9252V81.709H973.539ZM981.647 81.8643C981.181 81.8643 980.746 81.7815 980.342 81.6158C979.948 81.4501 979.633 81.1913 979.395 80.8392C979.156 80.4872 979.037 80.0419 979.037 79.5035C979.037 78.7269 979.296 78.1263 979.814 77.7018C980.332 77.2669 981.113 77.0495 982.159 77.0495H984.07V76.9097C984.07 76.6198 983.95 76.4075 983.712 76.2729C983.474 76.1383 983.055 76.071 982.454 76.071C981.605 76.071 980.766 76.2004 979.938 76.4593V74.7042C980.311 74.5592 980.777 74.4401 981.336 74.3469C981.895 74.2434 982.465 74.1916 983.044 74.1916C984.215 74.1916 985.141 74.4298 985.825 74.9061C986.508 75.3824 986.85 76.1383 986.85 77.1737V81.709H984.303L984.163 81.1188C983.904 81.3466 983.567 81.5278 983.153 81.6624C982.749 81.797 982.247 81.8643 981.647 81.8643ZM982.641 80.1558C982.972 80.1558 983.252 80.0989 983.479 79.985C983.717 79.8711 983.914 79.7313 984.07 79.5656V78.6492H982.656C982.014 78.6492 981.693 78.9029 981.693 79.4103C981.693 79.9073 982.009 80.1558 982.641 80.1558ZM988.176 81.709V74.3469H990.878L990.956 74.9372C991.277 74.7197 991.634 74.5437 992.027 74.4091C992.431 74.2641 992.871 74.1916 993.348 74.1916C993.824 74.1916 994.197 74.2589 994.466 74.3935C994.735 74.5282 994.953 74.7249 995.118 74.9837C995.45 74.7456 995.822 74.554 996.236 74.4091C996.661 74.2641 997.158 74.1916 997.728 74.1916C998.587 74.1916 999.219 74.4194 999.622 74.875C1000.03 75.3203 1000.23 76.0037 1000.23 76.9252V81.709H997.355V77.2669C997.355 76.9356 997.287 76.7026 997.153 76.568C997.018 76.423 996.796 76.3505 996.485 76.3505C996.081 76.3505 995.75 76.4955 995.491 76.7854C995.512 76.92 995.522 77.0495 995.522 77.1737C995.522 77.2876 995.522 77.4171 995.522 77.562V81.709H992.819V77.2203C992.819 76.92 992.768 76.7026 992.664 76.568C992.561 76.423 992.364 76.3505 992.074 76.3505C991.877 76.3505 991.686 76.4023 991.499 76.5059C991.313 76.6094 991.147 76.7337 991.002 76.8786V81.709H988.176Z" fill="#002BFF"/>
<rect x="840.416" y="182.923" width="207.09" height="64.4179" rx="8.62873" fill="white"/>
<path d="M892.565 220.787C890.908 220.787 889.64 220.383 888.759 219.575C887.89 218.768 887.455 217.463 887.455 215.662C887.455 214.419 887.651 213.42 888.045 212.664C888.438 211.898 889.013 211.344 889.769 211.002C890.535 210.65 891.467 210.474 892.565 210.474C893.662 210.474 894.589 210.65 895.345 211.002C896.111 211.344 896.691 211.898 897.084 212.664C897.478 213.42 897.675 214.419 897.675 215.662C897.675 217.463 897.235 218.768 896.354 219.575C895.474 220.383 894.211 220.787 892.565 220.787ZM892.565 218.302C893.31 218.302 893.849 218.095 894.18 217.681C894.522 217.256 894.692 216.583 894.692 215.662C894.692 214.678 894.522 213.984 894.18 213.58C893.849 213.166 893.31 212.959 892.565 212.959C891.819 212.959 891.276 213.166 890.934 213.58C890.602 213.984 890.437 214.678 890.437 215.662C890.437 216.583 890.602 217.256 890.934 217.681C891.276 218.095 891.819 218.302 892.565 218.302ZM898.762 223.987V213.27H901.294L901.433 213.86C901.734 213.622 902.06 213.44 902.412 213.316C902.774 213.182 903.194 213.114 903.67 213.114C904.768 213.114 905.611 213.394 906.202 213.953C906.802 214.502 907.102 215.439 907.102 216.764C907.102 218.079 906.787 219.078 906.155 219.762C905.523 220.445 904.654 220.787 903.546 220.787C902.811 220.787 902.189 220.647 901.682 220.368V223.987H898.762ZM902.8 218.659C903.225 218.659 903.551 218.509 903.779 218.209C904.006 217.908 904.12 217.442 904.12 216.811C904.12 216.2 904.012 215.786 903.794 215.568C903.587 215.351 903.266 215.242 902.831 215.242C902.396 215.242 902.013 215.387 901.682 215.677V218.286C901.848 218.411 902.013 218.504 902.179 218.566C902.345 218.628 902.552 218.659 902.8 218.659ZM912.25 220.787C911.391 220.787 910.63 220.647 909.967 220.368C909.315 220.078 908.802 219.648 908.429 219.078C908.067 218.509 907.886 217.805 907.886 216.966C907.886 215.796 908.217 214.864 908.88 214.17C909.542 213.466 910.531 213.114 911.846 213.114C913.047 213.114 913.984 213.42 914.657 214.031C915.341 214.642 915.683 215.475 915.683 216.531V217.82H910.573C910.707 218.214 910.971 218.493 911.365 218.659C911.758 218.825 912.291 218.908 912.964 218.908C913.389 218.908 913.814 218.871 914.238 218.799C914.673 218.716 915.02 218.623 915.279 218.519V220.274C914.554 220.616 913.544 220.787 912.25 220.787ZM910.573 216.236H913.166V215.972C913.166 215.682 913.073 215.444 912.887 215.258C912.711 215.071 912.395 214.978 911.939 214.978C911.432 214.978 911.075 215.087 910.868 215.304C910.671 215.511 910.573 215.822 910.573 216.236ZM916.766 220.632V213.27H919.5L919.577 213.829C919.857 213.642 920.224 213.477 920.68 213.332C921.146 213.187 921.643 213.114 922.171 213.114C923.093 213.114 923.766 213.342 924.19 213.798C924.615 214.253 924.827 214.957 924.827 215.91V220.632H921.907V216.205C921.907 215.874 921.834 215.636 921.69 215.491C921.545 215.346 921.291 215.273 920.928 215.273C920.711 215.273 920.483 215.325 920.245 215.429C920.017 215.532 919.831 215.656 919.686 215.801V220.632H916.766ZM929.325 220.632V210.629H932.245V220.632H929.325ZM933.648 220.632V213.27H936.381L936.459 213.829C936.738 213.642 937.106 213.477 937.562 213.332C938.028 213.187 938.525 213.114 939.053 213.114C939.974 213.114 940.647 213.342 941.072 213.798C941.496 214.253 941.709 214.957 941.709 215.91V220.632H938.789V216.205C938.789 215.874 938.716 215.636 938.571 215.491C938.426 215.346 938.173 215.273 937.81 215.273C937.593 215.273 937.365 215.325 937.127 215.429C936.899 215.532 936.713 215.656 936.568 215.801V220.632H933.648ZM945.895 220.787C945.263 220.787 944.668 220.74 944.108 220.647C943.56 220.564 943.125 220.456 942.804 220.321V218.224C943.166 218.39 943.596 218.519 944.093 218.613C944.6 218.706 945.03 218.752 945.382 218.752C945.755 218.752 946.034 218.742 946.221 218.721C946.418 218.701 946.516 218.613 946.516 218.457C946.516 218.281 946.345 218.147 946.003 218.053C945.662 217.96 945.232 217.826 944.714 217.65C944.041 217.411 943.539 217.132 943.208 216.811C942.876 216.49 942.711 216.024 942.711 215.413C942.711 214.678 943.001 214.114 943.58 213.72C944.16 213.316 945.071 213.114 946.314 213.114C946.79 213.114 947.282 213.151 947.79 213.223C948.297 213.296 948.696 213.378 948.985 213.472V215.522C948.675 215.387 948.333 215.289 947.96 215.227C947.598 215.164 947.267 215.133 946.966 215.133C946.635 215.133 946.34 215.149 946.081 215.18C945.822 215.211 945.693 215.299 945.693 215.444C945.693 215.61 945.838 215.729 946.128 215.801C946.428 215.874 946.827 215.988 947.324 216.143C947.883 216.309 948.318 216.49 948.628 216.687C948.949 216.883 949.172 217.121 949.296 217.401C949.431 217.681 949.498 218.028 949.498 218.442C949.498 219.187 949.193 219.767 948.582 220.181C947.981 220.585 947.085 220.787 945.895 220.787ZM953.515 220.787C952.532 220.787 951.817 220.538 951.372 220.041C950.927 219.544 950.704 218.871 950.704 218.022V215.429H949.741V213.27H950.704V211.763L953.624 211.064V213.27H955.317L955.208 215.429H953.624V217.805C953.624 218.116 953.702 218.338 953.857 218.473C954.012 218.597 954.251 218.659 954.572 218.659C954.872 218.659 955.177 218.607 955.488 218.504V220.445C954.939 220.673 954.282 220.787 953.515 220.787ZM958.561 220.787C958.095 220.787 957.661 220.704 957.257 220.538C956.863 220.373 956.547 220.114 956.309 219.762C956.071 219.41 955.952 218.965 955.952 218.426C955.952 217.65 956.211 217.049 956.729 216.624C957.246 216.19 958.028 215.972 959.074 215.972H960.984V215.832C960.984 215.542 960.865 215.33 960.627 215.196C960.389 215.061 959.97 214.994 959.369 214.994C958.52 214.994 957.681 215.123 956.853 215.382V213.627C957.226 213.482 957.692 213.363 958.251 213.27C958.81 213.166 959.379 213.114 959.959 213.114C961.129 213.114 962.056 213.352 962.739 213.829C963.423 214.305 963.764 215.061 963.764 216.096V220.632H961.217L961.077 220.041C960.819 220.269 960.482 220.45 960.068 220.585C959.664 220.72 959.162 220.787 958.561 220.787ZM959.555 219.078C959.887 219.078 960.166 219.022 960.394 218.908C960.632 218.794 960.829 218.654 960.984 218.488V217.572H959.571C958.929 217.572 958.608 217.826 958.608 218.333C958.608 218.83 958.924 219.078 959.555 219.078ZM968.321 223.365C967.958 223.365 967.565 223.35 967.14 223.319C966.716 223.298 966.312 223.257 965.929 223.194C965.556 223.132 965.246 223.06 964.997 222.977V221.113C965.277 221.206 965.598 221.284 965.96 221.346C966.333 221.408 966.711 221.455 967.094 221.486C967.477 221.517 967.829 221.532 968.15 221.532C968.699 221.532 969.129 221.501 969.439 221.439C969.76 221.388 969.921 221.289 969.921 221.144C969.921 221.02 969.869 220.937 969.765 220.896C969.662 220.865 969.465 220.849 969.175 220.849H967.234C966.478 220.849 965.893 220.73 965.479 220.492C965.075 220.243 964.873 219.876 964.873 219.389C964.873 218.706 965.251 218.229 966.007 217.96C965.582 217.743 965.271 217.468 965.075 217.137C964.878 216.806 964.78 216.386 964.78 215.879C964.78 214.926 965.101 214.227 965.743 213.782C966.395 213.337 967.332 213.114 968.554 213.114C968.813 213.114 969.103 213.135 969.424 213.176C969.745 213.207 969.978 213.239 970.123 213.27H973.011L972.949 215.04H971.971C972.157 215.278 972.25 215.568 972.25 215.91C972.25 216.666 972.028 217.266 971.583 217.712C971.148 218.147 970.459 218.364 969.517 218.364C969.382 218.364 969.237 218.359 969.082 218.348C968.927 218.328 968.782 218.312 968.647 218.302C968.419 218.323 968.223 218.364 968.057 218.426C967.891 218.488 967.808 218.592 967.808 218.737C967.808 218.84 967.855 218.913 967.948 218.954C968.041 218.985 968.171 219.001 968.336 219.001H970.029C970.785 219.001 971.381 219.177 971.816 219.529C972.25 219.881 972.468 220.399 972.468 221.082C972.468 221.807 972.131 222.366 971.458 222.759C970.785 223.163 969.739 223.365 968.321 223.365ZM968.569 216.764C969.025 216.764 969.341 216.687 969.517 216.531C969.693 216.376 969.781 216.117 969.781 215.755C969.781 215.392 969.693 215.128 969.517 214.963C969.341 214.797 969.025 214.714 968.569 214.714C968.145 214.714 967.834 214.797 967.637 214.963C967.451 215.118 967.358 215.382 967.358 215.755C967.358 216.107 967.446 216.366 967.622 216.531C967.808 216.687 968.124 216.764 968.569 216.764ZM973.539 220.632V213.27H976.35L976.428 213.86C976.728 213.684 977.111 213.523 977.577 213.378C978.043 213.233 978.514 213.145 978.99 213.114V215.289C978.721 215.309 978.426 215.346 978.105 215.397C977.794 215.449 977.489 215.517 977.189 215.599C976.899 215.672 976.655 215.755 976.459 215.848V220.632H973.539ZM981.647 220.787C981.181 220.787 980.746 220.704 980.342 220.538C979.948 220.373 979.633 220.114 979.395 219.762C979.156 219.41 979.037 218.965 979.037 218.426C979.037 217.65 979.296 217.049 979.814 216.624C980.332 216.19 981.113 215.972 982.159 215.972H984.07V215.832C984.07 215.542 983.95 215.33 983.712 215.196C983.474 215.061 983.055 214.994 982.454 214.994C981.605 214.994 980.766 215.123 979.938 215.382V213.627C980.311 213.482 980.777 213.363 981.336 213.27C981.895 213.166 982.465 213.114 983.044 213.114C984.215 213.114 985.141 213.352 985.825 213.829C986.508 214.305 986.85 215.061 986.85 216.096V220.632H984.303L984.163 220.041C983.904 220.269 983.567 220.45 983.153 220.585C982.749 220.72 982.247 220.787 981.647 220.787ZM982.641 219.078C982.972 219.078 983.252 219.022 983.479 218.908C983.717 218.794 983.914 218.654 984.07 218.488V217.572H982.656C982.014 217.572 981.693 217.826 981.693 218.333C981.693 218.83 982.009 219.078 982.641 219.078ZM988.176 220.632V213.27H990.878L990.956 213.86C991.277 213.642 991.634 213.466 992.027 213.332C992.431 213.187 992.871 213.114 993.348 213.114C993.824 213.114 994.197 213.182 994.466 213.316C994.735 213.451 994.953 213.648 995.118 213.906C995.45 213.668 995.822 213.477 996.236 213.332C996.661 213.187 997.158 213.114 997.728 213.114C998.587 213.114 999.219 213.342 999.622 213.798C1000.03 214.243 1000.23 214.926 1000.23 215.848V220.632H997.355V216.19C997.355 215.858 997.287 215.625 997.153 215.491C997.018 215.346 996.796 215.273 996.485 215.273C996.081 215.273 995.75 215.418 995.491 215.708C995.512 215.843 995.522 215.972 995.522 216.096C995.522 216.21 995.522 216.34 995.522 216.485V220.632H992.819V216.143C992.819 215.843 992.768 215.625 992.664 215.491C992.561 215.346 992.364 215.273 992.074 215.273C991.877 215.273 991.686 215.325 991.499 215.429C991.313 215.532 991.147 215.656 991.002 215.801V220.632H988.176Z" fill="#002BFF"/>
<path d="M232.521 75.9263H297.237" stroke="white" stroke-width="2.58862" stroke-dasharray="1.73 1.73"/>
<path d="M232.521 215.712H297.237" stroke="white" stroke-width="2.58862" stroke-dasharray="1.73 1.73"/>
<path d="M503.895 75.9263H568.611" stroke="white" stroke-width="2.58862" stroke-dasharray="1.73 1.73"/>
<path d="M503.895 215.712H568.611" stroke="white" stroke-width="2.58862" stroke-dasharray="1.73 1.73"/>
<path d="M775.269 75.9263H839.984" stroke="white" stroke-width="2.58862" stroke-dasharray="1.73 1.73"/>
<path d="M775.269 215.712H839.984" stroke="white" stroke-width="2.58862" stroke-dasharray="1.73 1.73"/>
<path d="M1047.07 217.869C1046.36 217.869 1045.78 218.449 1045.78 219.163C1045.78 219.878 1046.36 220.458 1047.07 220.458V217.869ZM1047.07 76.3578H1047.91V73.7692H1047.07V76.3578ZM1049.59 76.3578H1051.27V73.7692H1049.59V76.3578ZM1052.95 76.3578H1054.62V73.7692H1052.95V76.3578ZM1056.3 76.3578H1057.98V73.7692H1056.3V76.3578ZM1059.66 76.3578H1061.34V73.7692H1059.66V76.3578ZM1063.01 76.3578H1064.69V73.7692H1063.01V76.3578ZM1066.37 76.3578H1068.05V73.7692H1066.37V76.3578ZM1069.72 76.3578H1071.4V73.7692H1069.72V76.3578ZM1073.08 76.3578H1074.76V73.7692H1073.08V76.3578ZM1076.44 76.3578H1077.27V73.7692H1076.44V76.3578ZM1077.27 76.3578C1077.34 76.3578 1077.39 76.3697 1077.44 76.39L1078.43 73.9988C1078.07 73.8504 1077.68 73.7692 1077.27 73.7692V76.3578ZM1077.67 76.6244C1077.69 76.6735 1077.71 76.7283 1077.71 76.7892H1080.29C1080.29 76.3821 1080.21 75.9907 1080.06 75.6328L1077.67 76.6244ZM1077.71 76.7892V77.6468H1080.29V76.7892H1077.71ZM1077.71 79.3621V81.0773H1080.29V79.3621H1077.71ZM1077.71 82.7925V84.5077H1080.29V82.7925H1077.71ZM1077.71 86.223V87.9382H1080.29V86.223H1077.71ZM1077.71 89.6534V91.3686H1080.29V89.6534H1077.71ZM1077.71 93.0839V94.7991H1080.29V93.0839H1077.71ZM1077.71 96.5143V98.2295H1080.29V96.5143H1077.71ZM1077.71 99.9448V101.66H1080.29V99.9448H1077.71ZM1077.71 103.375V105.09H1080.29V103.375H1077.71ZM1077.71 106.806V108.521H1080.29V106.806H1077.71ZM1077.71 110.236V111.951H1080.29V110.236H1077.71ZM1077.71 113.667V115.382H1080.29V113.667H1077.71ZM1077.71 117.097V118.812H1080.29V117.097H1077.71ZM1077.71 120.527V122.243H1080.29V120.527H1077.71ZM1077.71 123.958V125.673H1080.29V123.958H1077.71ZM1077.71 127.388V129.104H1080.29V127.388H1077.71ZM1077.71 130.819V132.534H1080.29V130.819H1077.71ZM1077.71 134.249V135.964H1080.29V134.249H1077.71ZM1077.71 137.68V139.395H1080.29V137.68H1077.71ZM1077.71 141.11V142.825H1080.29V141.11H1077.71ZM1077.71 144.541V146.256H1080.29V144.541H1077.71ZM1077.71 147.971V149.686H1080.29V147.971H1077.71ZM1077.71 151.401V153.117H1080.29V151.401H1077.71ZM1077.71 154.832V156.547H1080.29V154.832H1077.71ZM1077.71 158.262V159.978H1080.29V158.262H1077.71ZM1077.71 161.693V163.408H1080.29V161.693H1077.71ZM1077.71 165.123V166.839H1080.29V165.123H1077.71ZM1077.71 168.554V170.269H1080.29V168.554H1077.71ZM1077.71 171.984V173.699H1080.29V171.984H1077.71ZM1077.71 175.415V177.13H1080.29V175.415H1077.71ZM1077.71 178.845V180.56H1080.29V178.845H1077.71ZM1077.71 182.276V183.991H1080.29V182.276H1077.71ZM1077.71 185.706V187.421H1080.29V185.706H1077.71ZM1077.71 189.136V190.852H1080.29V189.136H1077.71ZM1077.71 192.567V194.282H1080.29V192.567H1077.71ZM1077.71 195.997V197.713H1080.29V195.997H1077.71ZM1077.71 199.428V201.143H1080.29V199.428H1077.71ZM1077.71 202.858V204.573H1080.29V202.858H1077.71ZM1077.71 206.289V208.004H1080.29V206.289H1077.71ZM1077.71 209.719V211.434H1080.29V209.719H1077.71ZM1077.71 213.15V214.865H1080.29V213.15H1077.71ZM1077.71 216.58V217.438H1080.29V216.58H1077.71ZM1077.71 217.438C1077.71 217.498 1077.69 217.553 1077.67 217.602L1080.06 218.594C1080.21 218.236 1080.29 217.845 1080.29 217.438H1077.71ZM1077.44 217.837C1077.39 217.857 1077.34 217.869 1077.27 217.869V220.458C1077.68 220.458 1078.07 220.376 1078.43 220.228L1077.44 217.837ZM1077.27 217.869H1076.44V220.458H1077.27V217.869ZM1074.76 217.869H1073.08V220.458H1074.76V217.869ZM1071.4 217.869H1069.72V220.458H1071.4V217.869ZM1068.05 217.869H1066.37V220.458H1068.05V217.869ZM1064.69 217.869H1063.01V220.458H1064.69V217.869ZM1061.34 217.869H1059.66V220.458H1061.34V217.869ZM1057.98 217.869H1056.3V220.458H1057.98V217.869ZM1054.62 217.869H1052.95V220.458H1054.62V217.869ZM1051.27 217.869H1049.59V220.458H1051.27V217.869ZM1047.91 217.869H1047.07V220.458H1047.91V217.869Z" fill="white"/>
</svg>
