<svg width="25" height="25" viewBox="0 0 25 25" fill="none" xmlns="http://www.w3.org/2000/svg">
<path d="M24.9812 1.89001C24.9516 1.40242 24.7446 0.942532 24.3991 0.597116C24.0537 0.251701 23.5938 0.0446438 23.1062 0.0150126C21.5337 -0.0787374 17.515 0.0650125 14.18 3.39876L13.5862 4.00001H6.29499C6.03134 3.99853 5.77002 4.04948 5.52624 4.14991C5.28246 4.25034 5.06108 4.39824 4.87499 4.58501L0.587488 8.87501C0.324548 9.13777 0.140041 9.46862 0.0546742 9.83041C-0.0306928 10.1922 -0.0135414 10.5706 0.104204 10.9232C0.221949 11.2758 0.435628 11.5886 0.72126 11.8265C1.00689 12.0644 1.35317 12.218 1.72124 12.27L6.52999 12.9413L12.0562 18.4675L12.7275 23.2788C12.7791 23.6468 12.9327 23.9932 13.1708 24.2786C13.4089 24.5639 13.7221 24.777 14.075 24.8938C14.2805 24.9624 14.4958 24.9975 14.7125 24.9975C14.9749 24.998 15.2348 24.9466 15.4772 24.8462C15.7196 24.7458 15.9398 24.5984 16.125 24.4125L20.415 20.125C20.6018 19.9389 20.7497 19.7175 20.8501 19.4738C20.9505 19.23 21.0015 18.9687 21 18.705V11.4138L21.5962 10.8175C24.9312 7.48251 25.075 3.46376 24.9812 1.89001ZM6.29499 6.00001H11.5862L6.64499 10.94L1.99999 10.2925L6.29499 6.00001ZM15.5962 4.81876C16.5571 3.85193 17.7133 3.10127 18.9875 2.61691C20.2616 2.13255 21.6245 1.92565 22.985 2.01001C23.0726 3.37124 22.8679 4.73545 22.3845 6.01097C21.9011 7.28649 21.1503 8.44376 20.1825 9.40501L13 16.585L8.41499 12L15.5962 4.81876ZM19 18.705L14.7087 23L14.06 18.3538L19 13.4138V18.705ZM9.72999 19.8925C9.16749 21.125 7.28624 24 1.99999 24C1.73477 24 1.48042 23.8947 1.29288 23.7071C1.10535 23.5196 0.999988 23.2652 0.999988 23C0.999988 17.7138 3.87499 15.8325 5.10749 15.2688C5.22699 15.2143 5.35606 15.1838 5.48732 15.1792C5.61858 15.1746 5.74947 15.1959 5.87251 15.2418C5.99554 15.2878 6.10832 15.3576 6.2044 15.4471C6.30049 15.5367 6.37799 15.6443 6.43249 15.7638C6.48699 15.8833 6.51741 16.0123 6.52203 16.1436C6.52665 16.2749 6.50537 16.4057 6.4594 16.5288C6.41344 16.6518 6.34369 16.7646 6.25414 16.8607C6.16459 16.9568 6.05699 17.0343 5.93749 17.0888C5.13374 17.455 3.35999 18.6338 3.04749 21.9525C6.36624 21.64 7.54749 19.8663 7.91124 19.0625C7.96574 18.943 8.04324 18.8354 8.13932 18.7459C8.2354 18.6563 8.34818 18.5866 8.47122 18.5406C8.59426 18.4946 8.72514 18.4734 8.85641 18.478C8.98767 18.4826 9.11674 18.513 9.23624 18.5675C9.35574 18.622 9.46334 18.6995 9.55289 18.7956C9.64244 18.8917 9.71219 19.0045 9.75815 19.1275C9.80412 19.2505 9.8254 19.3814 9.82078 19.5127C9.81616 19.6439 9.78574 19.773 9.73124 19.8925H9.72999Z" fill="white"/>
</svg>
